<svg xmlns="http://www.w3.org/2000/svg" viewBox="0 0 3000 2000"><defs><style>.cls-1{fill:#010204;}.cls-2{fill:#e04b4e;}</style></defs><title>Задание 1</title><g id="Задание_1" data-name="Задание 1"><rect class="cls-1" x="-43.5" y="-26.13" width="3090.5" height="2060.33"/><polygon class="cls-2" points="270.39 1590.35 291.07 1633.91 333.55 1611.08 298.5 1644.21 333.34 1677.55 291.01 1654.46 270.07 1697.9 278.94 1650.5 231.16 1644 278.98 1637.8 270.39 1590.35"/><polygon class="cls-2" points="90.83 1288.6 116.08 1318.51 144.69 1291.8 124.05 1325.05 158.29 1344.01 120.28 1334.65 112.84 1373.08 109.99 1334.04 71.15 1338.84 107.39 1324.07 90.83 1288.6"/><polygon class="cls-2" points="116.39 817.25 120.63 849.13 152.25 843.3 123.24 857.18 138.55 885.46 116.39 862.16 94.23 885.46 109.54 857.18 80.54 843.3 112.16 849.13 116.39 817.25"/><polygon class="cls-2" points="258.26 1050.67 251.72 1073.78 275.13 1079.17 251.12 1080.08 253.24 1104.01 244.95 1081.46 222.84 1090.87 241.73 1076.02 225.95 1057.9 245.91 1071.27 258.26 1050.67"/><polygon class="cls-2" points="219.25 499.42 239.93 542.98 282.41 520.15 247.36 553.28 282.2 586.62 239.87 563.53 218.93 606.97 227.8 559.57 180.02 553.07 227.84 546.87 219.25 499.42"/><polygon class="cls-2" points="2843.82 1408.42 2864.5 1451.98 2906.98 1429.15 2871.94 1462.28 2906.77 1495.62 2864.44 1472.53 2843.5 1515.97 2852.37 1468.57 2804.59 1462.07 2852.41 1455.87 2843.82 1408.42"/><polygon class="cls-2" points="1785.83 1629.08 1806.5 1672.64 1848.98 1649.81 1813.94 1682.94 1848.77 1716.28 1806.44 1693.19 1785.5 1736.63 1794.37 1689.23 1746.59 1682.73 1794.41 1676.53 1785.83 1629.08"/><polygon class="cls-2" points="870.29 275.08 890.97 318.64 933.45 295.81 898.41 328.94 933.24 362.28 890.91 339.19 869.97 382.63 878.84 335.23 831.06 328.73 878.88 322.53 870.29 275.08"/><polygon class="cls-2" points="1176.66 1625.75 1180.89 1657.62 1212.52 1651.8 1183.51 1665.68 1198.82 1693.95 1176.66 1670.65 1154.5 1693.95 1169.81 1665.68 1140.8 1651.8 1172.42 1657.62 1176.66 1625.75"/><polygon class="cls-2" points="2336.57 1663.75 2340.81 1695.62 2372.43 1689.8 2343.42 1703.68 2358.73 1731.95 2336.57 1708.65 2314.41 1731.95 2329.72 1703.68 2300.72 1689.8 2332.34 1695.62 2336.57 1663.75"/><polygon class="cls-2" points="2891.57 1069.75 2895.81 1101.62 2927.43 1095.8 2898.42 1109.68 2913.73 1137.95 2891.57 1114.65 2869.41 1137.95 2884.72 1109.68 2855.72 1095.8 2887.34 1101.62 2891.57 1069.75"/><polygon class="cls-2" points="1797.32 314.75 1801.55 346.62 1833.18 340.8 1804.17 354.68 1819.48 382.95 1797.32 359.65 1775.16 382.95 1790.47 354.68 1761.46 340.8 1793.08 346.62 1797.32 314.75"/><polygon class="cls-2" points="827.6 1671.18 821.05 1694.29 844.46 1699.68 820.46 1700.59 822.57 1724.52 814.28 1701.97 792.18 1711.38 811.06 1696.53 795.28 1678.41 815.24 1691.78 827.6 1671.18"/><polygon class="cls-2" points="2711.6 1599.18 2705.05 1622.29 2728.46 1627.68 2704.46 1628.59 2706.57 1652.52 2698.28 1629.97 2676.18 1639.38 2695.06 1624.53 2679.28 1606.41 2699.24 1619.78 2711.6 1599.18"/><polygon class="cls-2" points="2763.49 771.27 2756.94 794.38 2780.36 799.76 2756.35 800.68 2758.46 824.61 2750.18 802.06 2728.07 811.47 2746.95 796.61 2731.18 778.5 2751.14 791.87 2763.49 771.27"/><polygon class="cls-2" points="2441.49 275.27 2434.94 298.38 2458.36 303.76 2434.35 304.68 2436.46 328.61 2428.18 306.06 2406.07 315.46 2424.95 300.61 2409.18 282.5 2429.14 295.87 2441.49 275.27"/><polygon class="cls-2" points="1302.49 329.27 1295.94 352.38 1319.36 357.76 1295.35 358.68 1297.46 382.61 1289.18 360.06 1267.07 369.46 1285.95 354.61 1270.18 336.5 1290.14 349.87 1302.49 329.27"/><polygon class="cls-2" points="116.26 302.27 109.71 325.38 133.12 330.76 109.11 331.68 111.23 355.61 102.94 333.06 80.84 342.46 99.72 327.61 83.94 309.5 103.9 322.87 116.26 302.27"/></g></svg>