<svg xmlns="http://www.w3.org/2000/svg" viewBox="0 0 3000 2000"><defs><style>.cls-1{fill:#010204;}.cls-2{fill:#e04b4e;}.cls-3{fill:#18b1ab;}</style></defs><title>Регистрация</title><g id="Регистрация"><rect class="cls-1" x="-38" y="-25.33" width="3076" height="2050.67"/><polygon class="cls-2" points="2862.43 535.44 2883.1 579 2925.58 556.17 2890.54 589.3 2925.38 622.64 2883.04 599.55 2862.1 642.99 2870.97 595.59 2823.2 589.09 2871.01 582.89 2862.43 535.44"/><polygon class="cls-2" points="2702.43 1257.44 2723.1 1301 2765.58 1278.17 2730.54 1311.3 2765.38 1344.64 2723.04 1321.55 2702.1 1364.99 2710.97 1317.59 2663.2 1311.09 2711.01 1304.89 2702.43 1257.44"/><polygon class="cls-2" points="2910.17 944.77 2914.41 976.64 2946.03 970.82 2917.03 984.7 2932.33 1012.97 2910.17 989.67 2888.01 1012.97 2903.32 984.7 2874.32 970.82 2905.94 976.64 2910.17 944.77"/><polygon class="cls-2" points="2945.2 1569.2 2938.65 1592.31 2962.06 1597.7 2938.06 1598.61 2940.17 1622.54 2931.88 1599.99 2909.78 1609.4 2928.66 1594.55 2912.89 1576.43 2932.84 1589.8 2945.2 1569.2"/><polygon class="cls-2" points="2661.09 831.29 2654.54 854.4 2677.95 859.78 2653.95 860.7 2656.06 884.63 2647.78 862.08 2625.67 871.49 2644.55 856.63 2628.78 838.52 2648.74 851.89 2661.09 831.29"/><polygon class="cls-2" points="624.24 163.23 644.92 206.8 687.4 183.96 652.36 217.09 687.19 250.43 644.86 227.34 623.92 270.78 632.79 223.38 585.01 216.89 632.83 210.68 624.24 163.23"/><polygon class="cls-2" points="1744.27 169.91 1748.5 201.78 1780.13 195.96 1751.12 209.83 1766.43 238.11 1744.27 214.81 1722.11 238.11 1737.42 209.83 1708.41 195.96 1740.04 201.78 1744.27 169.91"/><polygon class="cls-2" points="2332.44 238.42 2325.89 261.53 2349.31 266.92 2325.3 267.83 2327.41 291.76 2319.13 269.21 2297.02 278.62 2315.9 263.77 2300.13 245.66 2320.09 259.02 2332.44 238.42"/><polygon class="cls-2" points="1160.44 231.42 1153.89 254.53 1177.31 259.92 1153.3 260.83 1155.41 284.76 1147.13 262.21 1125.02 271.62 1143.9 256.77 1128.13 238.66 1148.09 252.02 1160.44 231.42"/><polygon class="cls-2" points="189.01 1323.31 163.76 1353.22 135.15 1326.51 155.79 1359.76 121.55 1378.72 159.56 1369.36 167 1407.79 169.85 1368.75 208.69 1373.55 172.44 1358.77 189.01 1323.31"/><polygon class="cls-2" points="157.45 668.96 153.21 700.84 121.59 695.01 150.6 708.89 135.29 737.16 157.45 713.87 179.61 737.16 164.3 708.89 193.3 695.01 161.68 700.84 157.45 668.96"/><polygon class="cls-2" points="71.58 1026.38 78.12 1049.49 54.71 1054.88 78.72 1055.79 76.6 1079.72 84.89 1057.17 107 1066.58 88.11 1051.73 103.89 1033.61 83.93 1046.98 71.58 1026.38"/><polygon class="cls-2" points="98.59 338.13 77.91 381.69 35.44 358.86 70.48 391.99 35.64 425.33 77.97 402.24 98.92 445.68 90.04 398.28 137.82 391.78 90 385.58 98.59 338.13"/><polygon class="cls-2" points="90.34 1595.97 83.79 1619.08 107.21 1624.46 83.2 1625.38 85.31 1649.31 77.03 1626.76 54.92 1636.17 73.8 1621.32 58.03 1603.2 77.99 1616.57 90.34 1595.97"/><polygon class="cls-2" points="913.25 926.5 919.8 949.61 896.39 955 920.39 955.91 918.28 979.84 926.57 957.29 948.67 966.7 929.79 951.85 945.57 933.73 925.61 947.1 913.25 926.5"/><polygon class="cls-2" points="1620.26 640.65 1626.8 663.76 1603.39 669.14 1627.39 670.06 1625.28 693.99 1633.57 671.44 1655.67 680.85 1636.79 666 1652.57 647.88 1632.61 661.25 1620.26 640.65"/><polygon class="cls-2" points="1546.26 1311.65 1552.8 1334.76 1529.39 1340.14 1553.39 1341.06 1551.28 1364.99 1559.57 1342.44 1581.67 1351.85 1562.79 1337 1578.57 1318.88 1558.61 1332.25 1546.26 1311.65"/><polygon class="cls-2" points="1770.53 1013.22 1774.76 1045.09 1806.39 1039.27 1777.38 1053.14 1792.69 1081.42 1770.53 1058.12 1748.37 1081.42 1763.68 1053.14 1734.68 1039.27 1766.3 1045.09 1770.53 1013.22"/><polygon class="cls-2" points="993.53 547.22 997.76 579.09 1029.39 573.27 1000.38 587.14 1015.69 615.42 993.53 592.12 971.37 615.42 986.68 587.14 957.68 573.27 989.3 579.09 993.53 547.22"/><polygon class="cls-2" points="1151.53 1382.69 1155.76 1414.56 1187.39 1408.74 1158.38 1422.61 1173.69 1450.89 1151.53 1427.59 1129.37 1450.89 1144.68 1422.61 1115.68 1408.74 1147.3 1414.56 1151.53 1382.69"/><polygon class="cls-2" points="2233.57 1351.76 2254.25 1395.32 2296.72 1372.49 2261.68 1405.62 2296.52 1438.96 2254.18 1415.87 2233.24 1459.31 2242.12 1411.91 2194.34 1405.41 2242.16 1399.21 2233.57 1351.76"/><path class="cls-3" d="M2652.62,390.31v0l0,0Z"/><path class="cls-3" d="M2658,386c-.08.14-.16.27-.23.41l.42-.19-.13-.08Z"/></g></svg>