<svg xmlns="http://www.w3.org/2000/svg" viewBox="0 0 3000 2000"><defs><style>.cls-1{fill:#010204;}.cls-2{fill:#e04b4e;}</style></defs><title>Концовка</title><g id="Задание_2" data-name="Задание 2"><rect class="cls-1" x="-47.26" y="-31" width="3094.26" height="2062.08"/><polygon class="cls-2" points="174.74 1337.54 195.41 1381.1 237.89 1358.27 202.85 1391.4 237.69 1424.74 195.35 1401.65 174.41 1445.08 183.28 1397.69 135.5 1391.19 183.32 1384.99 174.74 1337.54"/><polygon class="cls-2" points="1675.94 1560.72 1710.94 1578.25 1726.7 1542.41 1720.84 1581.12 1759.79 1585.03 1721.17 1591.42 1729.48 1629.67 1711.47 1594.92 1677.66 1614.64 1705.15 1586.77 1675.94 1560.72"/><polygon class="cls-2" points="732.17 497.79 757.42 527.7 786.03 500.98 765.39 534.24 799.63 553.2 761.63 543.84 754.19 582.27 751.34 543.23 712.49 548.02 748.74 533.25 732.17 497.79"/><polygon class="cls-2" points="2564.03 1418.3 2589.28 1448.21 2617.89 1421.49 2597.25 1454.75 2631.5 1473.71 2593.49 1464.35 2586.05 1502.78 2583.2 1463.74 2544.35 1468.53 2580.6 1453.76 2564.03 1418.3"/><polygon class="cls-2" points="1146.74 322.44 1150.97 354.31 1182.6 348.49 1153.59 362.37 1168.9 390.64 1146.74 367.34 1124.58 390.64 1139.89 362.37 1110.88 348.49 1142.5 354.31 1146.74 322.44"/><polygon class="cls-2" points="2365.17 1153.05 2351.03 1172.47 2371.14 1185.62 2348.3 1178.18 2342 1201.36 2342.03 1177.34 2318.03 1178.51 2340.89 1171.11 2332.36 1148.66 2346.45 1168.11 2365.17 1153.05"/><polygon class="cls-2" points="2912.86 622.58 2879.05 637.05 2895.2 670.1 2870.98 642.41 2844.54 667.98 2863.39 636.39 2830.9 619.15 2866.76 627.31 2873.13 591.09 2876.44 627.72 2912.86 622.58"/><polygon class="cls-2" points="467.61 1532.86 461.06 1555.97 484.47 1561.36 460.47 1562.27 462.58 1586.2 454.3 1563.65 432.19 1573.06 451.07 1558.21 435.3 1540.09 455.25 1553.46 467.61 1532.86"/><polygon class="cls-2" points="97.13 892.5 91.7 915.9 115.34 920.16 91.41 922.22 94.67 946.02 85.31 923.9 63.68 934.36 81.83 918.62 65.2 901.28 85.78 913.67 97.13 892.5"/><polygon class="cls-2" points="2757.87 341.69 2756.09 365.65 2780.11 366.23 2756.77 371.94 2763.64 394.95 2751 374.53 2731.23 388.18 2746.75 369.84 2727.66 355.26 2749.9 364.35 2757.87 341.69"/><polygon class="cls-2" points="2075.58 477.4 2073.8 501.36 2097.82 501.93 2074.48 507.64 2081.35 530.66 2068.71 510.24 2048.94 523.88 2064.46 505.55 2045.37 490.96 2067.61 500.06 2075.58 477.4"/><polygon class="cls-2" points="1423.58 643.4 1421.8 667.36 1445.82 667.93 1422.48 673.64 1429.35 696.66 1416.71 676.24 1396.94 689.88 1412.46 671.55 1393.37 656.97 1415.61 666.06 1423.58 643.4"/><polygon class="cls-2" points="1202.58 1418.4 1200.8 1442.36 1224.82 1442.93 1201.48 1448.64 1208.35 1471.66 1195.71 1451.24 1175.94 1464.88 1191.46 1446.55 1172.37 1431.96 1194.61 1441.06 1202.58 1418.4"/><polygon class="cls-2" points="1659.58 404.01 1625.76 418.49 1641.91 451.54 1617.69 423.85 1591.25 449.42 1610.1 417.83 1577.62 400.59 1613.48 408.75 1619.84 372.53 1623.16 409.16 1659.58 404.01"/><polygon class="cls-2" points="837.58 1330.01 803.76 1344.49 819.91 1377.54 795.7 1349.85 769.25 1375.41 788.1 1343.83 755.62 1326.59 791.48 1334.75 797.84 1298.53 801.16 1335.16 837.58 1330.01"/><polygon class="cls-2" points="2066.17 1355.6 2052.03 1375.02 2072.14 1388.17 2049.3 1380.72 2043 1403.9 2043.03 1379.88 2019.03 1381.06 2041.89 1373.66 2033.36 1351.2 2047.45 1370.65 2066.17 1355.6"/><polygon class="cls-2" points="2878.17 1590.6 2864.03 1610.02 2884.14 1623.17 2861.3 1615.72 2855 1638.9 2855.03 1614.88 2831.03 1616.06 2853.89 1608.66 2845.36 1586.2 2859.45 1605.65 2878.17 1590.6"/></g></svg>