<svg id="Адвент" xmlns="http://www.w3.org/2000/svg" viewBox="0 0 3000 2000"><defs><style>.cls-1{fill:#010204;}.cls-2{fill:#e04b4e;}</style></defs><title>Адвент</title><rect class="cls-1" x="-38" y="-25.33" width="3076" height="2050.67"/><polygon class="cls-2" points="310.74 1507.87 331.41 1551.43 373.89 1528.6 338.85 1561.73 373.69 1595.07 331.35 1571.98 310.41 1615.41 319.28 1568.02 271.5 1561.52 319.32 1555.32 310.74 1507.87"/><polygon class="cls-2" points="1765.94 1289.05 1800.94 1306.58 1816.7 1270.74 1810.84 1309.45 1849.79 1313.36 1811.17 1319.75 1819.48 1358 1801.47 1323.25 1767.66 1342.97 1795.15 1315.1 1765.94 1289.05"/><polygon class="cls-2" points="109.17 1149.12 134.42 1179.03 163.03 1152.31 142.39 1185.57 176.63 1204.53 138.63 1195.17 131.19 1233.6 128.34 1194.56 89.49 1199.35 125.74 1184.58 109.17 1149.12"/><polygon class="cls-2" points="2847.03 1272.63 2872.28 1302.54 2900.89 1275.82 2880.25 1309.08 2914.5 1328.04 2876.49 1318.68 2869.05 1357.11 2866.2 1318.07 2827.35 1322.86 2863.6 1308.09 2847.03 1272.63"/><polygon class="cls-2" points="156.74 734.77 160.97 766.64 192.59 760.82 163.59 774.7 178.9 802.97 156.74 779.67 134.58 802.97 149.89 774.7 120.88 760.82 152.5 766.64 156.74 734.77"/><polygon class="cls-2" points="2754.17 1012.38 2740.03 1031.8 2760.14 1044.95 2737.3 1037.51 2731 1060.69 2731.03 1036.67 2707.03 1037.84 2729.89 1030.44 2721.36 1007.99 2735.45 1027.44 2754.17 1012.38"/><polygon class="cls-2" points="2952.86 886.9 2919.05 901.38 2935.2 934.43 2910.98 906.74 2884.54 932.31 2903.39 900.72 2870.9 883.48 2906.76 891.64 2913.13 855.42 2916.44 892.05 2952.86 886.9"/><polygon class="cls-2" points="473.61 1153.19 467.06 1176.3 490.47 1181.68 466.47 1182.6 468.58 1206.53 460.3 1183.98 438.19 1193.39 457.07 1178.54 441.3 1160.42 461.25 1173.79 473.61 1153.19"/><polygon class="cls-2" points="836.13 809.84 830.7 833.23 854.34 837.49 830.41 839.55 833.67 863.35 824.31 841.23 802.68 851.69 820.83 835.95 804.2 818.61 824.78 831.01 836.13 809.84"/><polygon class="cls-2" points="2763.87 701.02 2762.09 724.98 2786.11 725.56 2762.77 731.27 2769.64 754.29 2757 733.86 2737.23 747.51 2752.75 729.17 2733.66 714.59 2755.9 723.68 2763.87 701.02"/><polygon class="cls-2" points="2081.58 836.73 2079.8 860.69 2103.82 861.26 2080.48 866.98 2087.35 889.99 2074.71 869.57 2054.94 883.22 2070.46 864.88 2051.37 850.29 2073.61 859.39 2081.58 836.73"/><polygon class="cls-2" points="1455.58 1061.73 1453.8 1085.69 1477.82 1086.26 1454.48 1091.97 1461.35 1114.99 1448.71 1094.57 1428.94 1108.21 1444.46 1089.88 1425.37 1075.3 1447.61 1084.39 1455.58 1061.73"/><polygon class="cls-2" points="1236.58 1588.73 1234.8 1612.69 1258.82 1613.26 1235.48 1618.97 1242.35 1641.99 1229.71 1621.57 1209.94 1635.21 1225.46 1616.88 1206.37 1602.3 1228.61 1611.39 1236.58 1588.73"/><polygon class="cls-2" points="1555.58 693.34 1521.76 707.82 1537.91 740.87 1513.69 713.18 1487.25 738.75 1506.1 707.16 1473.62 689.92 1509.48 698.08 1515.84 661.86 1519.16 698.49 1555.58 693.34"/><polygon class="cls-2" points="1172.58 1449.34 1138.76 1463.82 1154.91 1496.87 1130.69 1469.18 1104.25 1494.74 1123.1 1463.16 1090.62 1445.92 1126.48 1454.08 1132.84 1417.86 1136.16 1454.49 1172.58 1449.34"/></svg>