<svg xmlns="http://www.w3.org/2000/svg" viewBox="0 0 380.89 439.23"><defs><style>.cls-1{fill:#15b2ab;}.cls-2{fill:#e04b4e;}</style></defs><title>Ресурс 12</title><g id="Слой_2" data-name="Слой 2"><g id="Задание_2" data-name="Задание 2"><path class="cls-1" d="M380.89,167.93c-12.55,0-25.1.33-37.63,0-3.85-.11-7.65-1.92-11.47-3-1.14-.32-2.27-.67-4-1.17,2.32-1.35,4.29-2.53,6.3-3.65,1.35-.75,2.61-1.61,1.68-3.32s-2.42-1.2-3.84-.33c-1.87,1.16-3.82,2.21-5.72,3.3-.75-.49-.25-1-.13-1.5.91-3.45,1.85-6.89,2.77-10.34.41-1.54,1.07-3.3-1.2-3.88-2.07-.53-2.46,1.14-2.86,2.66-1.21,4.6-2.48,9.19-3.63,13.81a5.13,5.13,0,0,1-3,3.93c-1.59.7-3,1.76-4.57,2.55a2,2,0,0,1-3.12-1.06c-1.34-2.79-2.75-5.55-4.11-8.33a3,3,0,0,1,.73-3.85c3.64-3.54,7.21-7.16,10.81-10.74,1.15-1.14,2.6-2.41,1.08-4-1.69-1.76-3-.12-4.15,1.06-2.77,2.82-5.5,5.66-8.25,8.5l-.58-.26c0-2.41,0-4.83,0-7.24,0-1.57-.44-2.77-2.16-2.77s-2.07,1.21-2.07,2.63v7.25l-.73.38c-1.87-2-3.72-4-5.61-6-1-1.09-2.13-2.14-3.2-3.19s-2.29-1.69-3.52-.42-.45,2.43.61,3.47c3.67,3.64,7.25,7.36,11,10.92a3.54,3.54,0,0,1,.9,4.66c-1.33,2.62-2.68,5.23-4,7.88-.77,1.59-1.88,1.77-3.3,1-1.86-1-3.68-2.18-5.59-3.16-1.11-.57-1.24-1.57-1.51-2.55-1.26-4.67-2.5-9.34-3.75-14-.12-.45-.31-.9-.41-1.36a2,2,0,0,0-2.6-1.78c-1.6.3-1.7,1.55-1.41,2.78.86,3.54,1.82,7.07,2.73,10.6.19.74.34,1.48.62,2.69-2.55-1.48-4.68-2.68-6.77-3.93-1.28-.76-2.45-.85-3.25.57s0,2.42,1.2,3.13c2.12,1.22,4.25,2.42,6.88,3.92-3.36.94-6.23,1.61-9,2.55a41.47,41.47,0,0,1-14.05,1.76c-9.21-.14-18.43-.1-27.64,0-2.22,0-2.62-.6-2.29-2.7,4.61-29.81,21-50.45,48.59-62.2,2.06-.88,2.67-1.82,2.63-4-.12-7.23-.08-14.46,0-21.69a24.83,24.83,0,0,1,19.72-24c2.77-.56,3.35-1.62,3.33-4.27-.15-15.5,0-31-.15-46.48,0-2.1.43-2.9,2.7-2.8,4,.19,4,0,4,4,0,15.57,0,31.15-.05,46.72,0,1.77.53,2.4,2.24,2.81a25.13,25.13,0,0,1,19.28,24.19c.12,7.31.11,14.62,0,21.92a3,3,0,0,0,2.14,3.33q38.94,16.08,48.16,57.25c.43,1.91.35,3.92,1.12,5.77Zm-77.3-84.14h7.61c5.85,0,5.85,0,5.71-5.89A13.06,13.06,0,0,0,294,69.65c-3.17,3.57-3.38,7.84-3.26,12.28,0,1.44.44,1.93,1.9,1.89C296.29,83.73,299.94,83.79,303.59,83.79Z"/><path class="cls-1" d="M380.89,183.66c-1,3.9-1.42,7.9-2.44,11.8-7.61,29-32.86,51.63-62.58,56-40.61,5.94-77.53-18.83-87.32-58.66-.69-2.84-1-5.79-1.49-8.68-.26-1.42.1-2,1.65-2,11.92,0,23.84-.28,35.74.21,4.48.18,8.88,2.19,13.32,3.38.59.16,1.16.37,2,.64a39.82,39.82,0,0,1-6.15,3.76c-1.38.8-2.46,1.73-1.49,3.4s2.21,1.05,3.48.3c2-1.18,4-2.3,6.08-3.53.45,1.27-.18,2.24-.43,3.23-.79,3.16-1.67,6.3-2.45,9.46-.31,1.26-.51,2.67,1.21,3.1s2.43-.65,2.83-2.13c1.25-4.67,2.71-9.3,3.71-14,.6-2.81,2.23-4.15,5-5.11-.35,2.11-.64,4-1,5.91-.23,1.25-.68,2.56.6,3.5s2.4.1,3.52-.48c1.76-.92,3.54-1.8,5.26-2.79,1.49-.86,1.71-.41,1.83,1.17a6.15,6.15,0,0,1-2.27,5.36c-3.47,3.26-6.77,6.7-10.14,10.07-1,1-2,2.13-.71,3.47s2.56.71,3.69-.46c2.88-3,5.79-6,8.69-9l.73.3v6.74c0,1.49.05,3.1,2,3.14s2.28-1.55,2.26-3.19c0-2.22,0-4.44,0-7.22l6.12,6c1.13,1.12,2.26,2.23,3.36,3.38s2.17,1.59,3.31.49.7-2.46-.38-3.54l-4.38-4.37a65.88,65.88,0,0,0-5.25-5.19c-2.51-2-3.46-4.39-2.5-7.68,2.37.75,4.47,2.28,6.76,3.4,1.08.52,2.12,1.3,3.32.48s1-2.2.75-3.47c-.33-1.93-.65-3.87-1-6.05,2.47,1,4.35,1.9,4.94,4.72.94,4.5,2.32,8.9,3.52,13.35l.45,1.6a2,2,0,0,0,2.72,1.61c1.48-.39,1.64-1.53,1.28-2.84l-3-11c-.14-.52-.25-1-.53-2.19,2.51,1.45,4.59,2.61,6.63,3.82,1.28.76,2.52,1.24,3.45-.38s-.06-2.51-1.34-3.25l-6.68-3.87c3.64-1,6.8-1.73,9.89-2.71a34.25,34.25,0,0,1,11-1.51c10.8.14,21.6.09,32.4.12Z"/><path class="cls-1" d="M191.63,439.23c-3.82-.63-7.69-1.05-11.45-1.94-22.94-5.41-39.94-18.67-51.37-39.21-1-1.71-1.49-2.69,1.3-3a31.74,31.74,0,0,0,12.29-4.26,3.63,3.63,0,0,1,3.94,0c12.86,6.51,25.76,6.49,38.58-.19a3.1,3.1,0,0,1,3.28,0q19.47,10.14,39,0a2.65,2.65,0,0,1,2.84-.18q18.47,9.89,37.5,1a4.27,4.27,0,0,1,1-.14,66.7,66.7,0,0,1-7,13.3C249,423,231.75,434.23,209.85,438.18c-2.41.43-4.84.7-7.26,1.05Z"/><path class="cls-1" d="M100.79,230.53c2.42-1.4,4.39-2.55,6.37-3.68,1.32-.75,2.59-1.64,1.64-3.36s-2.32-1.15-3.66-.35c-2,1.17-4,2.29-6.46,3.73,1.09-4.18,2.09-7.86,3-11.57.38-1.57,1.66-3.69-.82-4.45-2.71-.83-2.7,1.73-3.17,3.37-1.27,4.5-2.53,9-3.67,13.55A4.4,4.4,0,0,1,91.54,231c-1.64.81-3.15,1.85-4.76,2.71-1.41.76-2.55.54-3.31-1-1.23-2.58-2.52-5.13-3.8-7.69a3.68,3.68,0,0,1,.82-4.88c3.68-3.49,7.22-7.14,10.8-10.74,1-1,2.2-2.18.81-3.64s-2.74-.42-3.83.71c-2.85,2.94-5.67,5.89-8.51,8.84l-.66-.4c0-2.26,0-4.52,0-6.79,0-1.5-.17-3.06-2.17-3s-2.09,1.62-2.09,3.12v7a34.57,34.57,0,0,1-4.87-4.5c-1.6-1.54-3.17-3.11-4.75-4.68-1-1-2.21-1.52-3.3-.32s-.55,2.32.47,3.33c3.72,3.7,7.35,7.48,11.14,11.09a3.56,3.56,0,0,1,.84,4.65c-1.25,2.57-2.6,5.09-3.81,7.68-.87,1.85-2.1,2-3.67,1.05a40.29,40.29,0,0,0-4.11-2.39,5.09,5.09,0,0,1-3-3.94c-1.12-4.54-2.39-9-3.6-13.57a14,14,0,0,0-.49-1.59A2,2,0,0,0,53,210.72a1.85,1.85,0,0,0-1.24,2.47q1.27,5,2.57,9.9c.27,1,.54,2.1,1,3.78-2.56-1.5-4.59-2.67-6.6-3.86-1.27-.76-2.52-1.19-3.5.36s0,2.49,1.28,3.22l6.33,3.7C43,234.42,33,235.23,22.71,234.83c-6.9-.26-13.81-.11-20.72-.06-1.5,0-2.18-.27-1.94-2q5.64-39.43,40.29-59a69.05,69.05,0,0,1,9.08-4.17,2.46,2.46,0,0,0,1.89-2.74c0-7.79-.2-15.58.14-23.36A24.88,24.88,0,0,1,72.05,120c2.18-.4,2.33-1.28,2.33-3q0-56.83,0-113.69c0-3.11,0-3.11,3.15-3.15a9.72,9.72,0,0,0,1.43,0c1.64-.24,2.16.34,2.15,2.06C81,13.08,81,24,81,35q0,41.36,0,82.7c0,1.51.35,2.18,2,2.57,11.83,2.92,19.4,12.51,19.54,24.68.08,7.14.12,14.3-.06,21.44,0,2,.73,2.64,2.39,3.35,27.92,11.84,44.39,32.64,48.89,62.77.28,1.86-.19,2.34-2,2.32-11.6-.08-23.19,0-34.79-.13-3.65,0-7-1.89-10.58-2.6C104.65,231.76,103,231.16,100.79,230.53ZM76.73,150.65h7.86c5.57,0,5.57,0,5.51-5.61a13.1,13.1,0,0,0-22.72-8.91c-3.53,3.62-3.56,8.08-3.49,12.66,0,1.48.45,1.93,1.89,1.9C69.43,150.59,73.08,150.65,76.73,150.65Z"/><path class="cls-1" d="M125.71,332.43a77.5,77.5,0,0,1,44.06-42.74,2.33,2.33,0,0,0,1.79-2.58c-.06-7.63-.11-15.26,0-22.89A25.17,25.17,0,0,1,192.82,240c1.84-.28,1.67-1.21,1.67-2.41V179.14q0-88.32-.07-176.65c0-2,.54-2.54,2.51-2.48,4.22.12,4.23,0,4.23,4.31q0,116.46,0,232.92c0,1.85.36,2.66,2.34,3.14a25,25,0,0,1,19.2,24q.23,10.85,0,21.69c0,2.14.54,3.15,2.61,4,17.61,6.93,30.87,18.84,39.95,35.42,1.49,2.72,1.45,2.69-1.52,3.26a38.59,38.59,0,0,0-12.28,4.4,2.67,2.67,0,0,1-3,.09c-13.14-6.82-26.31-6.89-39.43.08a2.43,2.43,0,0,1-2.62,0c-13.2-6.92-26.42-7-39.64,0a2.22,2.22,0,0,1-2.4.13c-12.39-6.59-25-7-37.73-1.08A6,6,0,0,1,125.71,332.43ZM197,270.6h7.6c5.67,0,5.67,0,5.58-5.73a13.45,13.45,0,0,0-8.5-12.08,13.12,13.12,0,0,0-14,3.17c-3.62,3.62-3.87,8.1-3.78,12.79,0,1.47.5,1.91,1.92,1.88C189.58,270.55,193.3,270.6,197,270.6Z"/><path class="cls-1" d="M98.65,256.73c2.63,1.51,4.76,2.72,6.87,3.95,1.15.68,2.33.94,3.12-.35s.35-2.44-1-3.21l-7-4.12c7.48-1.61,14-4.51,21.33-4.29,10,.31,20,.11,30,0,1.58,0,2,.32,1.82,2a77.49,77.49,0,0,1-67,67.74C47.33,323.8,9.3,296.79,1.43,257.85c-.47-2.32-.68-4.7-1.2-7-.36-1.64.12-2,1.73-2,10,.06,20,.34,30-.06,7.39-.3,13.89,2.62,21.41,4.2-2.56,1.49-4.57,2.7-6.62,3.85-1.38.79-2.46,1.79-1.42,3.4s2.32.93,3.57.2c2-1.16,3.94-2.3,6.52-3.8-1.15,4.4-2.13,8.18-3.12,12-.12.46-.29.9-.39,1.37-.27,1.28-.12,2.49,1.33,2.88s2.37-.52,2.75-1.92c1.28-4.67,2.75-9.29,3.75-14a6.56,6.56,0,0,1,5.05-5.37c-.38,2.34-.72,4.6-1.1,6.86a2.43,2.43,0,0,0,.7,2.6c1,.78,1.92.34,2.87-.16,2.36-1.26,4.74-2.5,7.39-3.9.24,2.79.6,5-1.75,7.07-3.53,3.08-6.66,6.59-10,9.88-1.19,1.18-2.46,2.51-.94,4s2.9.11,4-1.05c2.7-2.86,5.34-5.77,8-8.66l.91.58c0,2.25,0,4.51,0,6.77,0,1.5.21,3.08,2.16,3.05s2.07-1.62,2.08-3.12v-6.81l.61-.41,7.47,7.86c.49.51,1,1,1.52,1.51,1,1,2.16,1.54,3.32.39s.77-2.32-.25-3.35q-3.53-3.56-7.06-7.08a31.84,31.84,0,0,0-3.58-3.49c-2.06-1.48-2.15-3.47-2.07-5.67.05-1.27.51-1.33,1.45-.81q2.92,1.59,5.87,3.16c1.06.56,2.16,1.21,3.3.25s.84-1.95.62-3.08c-.41-2.08-.76-4.17-1.16-6.43,2.77,1,4.51,2.4,5.13,5.39,1,4.65,2.47,9.19,3.69,13.79.4,1.48,1.07,2.6,2.78,2.18s1.59-1.92,1.23-3.29C101,265.49,99.89,261.44,98.65,256.73Z"/><path class="cls-2" d="M274.26,367c-.12,1.18-.28,2.36-.36,3.55-.15,2.12,0,4.22-3.41,3.42-1.48-.35-2.74,1.08-3.69,2.28-1.24,1.55-2.39,3.17-3.56,4.77-7.23,9.81-19.42,9.81-26.68,0-1.23-1.66-2.38-3.38-3.7-5-2.49-3-5.59-2.95-8.08,0-1.37,1.65-2.58,3.42-3.88,5.13-7.34,9.6-19.06,9.57-26.34-.05-1.3-1.71-2.53-3.47-3.89-5.12-2.42-2.95-5.67-2.94-8.07,0-1.4,1.73-2.64,3.58-4,5.35-6.9,9.07-18.44,9.3-25.65.47-1.55-1.9-2.91-4-4.49-5.84-2.56-3-5.74-2.93-8.23.19-1.73,2.18-3.33,4.45-5.09,6.59a15.59,15.59,0,0,1-8.89,5.17c-1,.24-1.85.25-2.2-1-.73-2.68-1.52-5.35-2.33-8-.31-1,.05-1.3,1-1.17,2.35.31,3.88-.94,5.17-2.71s2.71-3.72,4.18-5.49c6.69-8.07,17.5-8.2,24.38-.27,1.71,2,3.15,4.18,4.8,6.22,2.61,3.23,5.78,3.25,8.38.05,1.69-2.1,3.21-4.34,4.94-6.4a15.43,15.43,0,0,1,23.61-.37c1.89,2.13,3.5,4.5,5.28,6.73,2.52,3.17,5.6,3.27,8.2.19,1.69-2,3.12-4.21,4.78-6.23,6.74-8.17,18.36-8,24.89.37,1.56,2,3,4.11,4.62,6.05,2.31,2.75,5.41,2.73,7.75,0,1.53-1.81,2.89-3.77,4.33-5.67a16.38,16.38,0,0,1,12.29-6.79C274,363.19,274.26,363.47,274.26,367Z"/><path class="cls-2" d="M120.1,356c.13-1.26.32-3.32.56-5.37.09-.71.21-1.4,1.32-1.06,2.76.82,4.52-.71,6-2.72s2.81-3.86,4.34-5.68a15.47,15.47,0,0,1,23.8-.34c1.78,2,3.28,4.28,5,6.39,2.87,3.63,5.91,3.61,8.78-.05,1.52-1.94,2.94-3.95,4.49-5.86a15.54,15.54,0,0,1,24.26-.08c1.55,1.91,3,3.9,4.5,5.86,2.88,3.76,6,3.79,8.93,0,1.18-1.5,2.3-3,3.44-4.57,7.19-9.57,19.18-9.57,26.37,0,1.38,1.84,2.7,3.74,4.23,5.45,2.29,2.56,5.14,2.55,7.39,0,1.72-2,3.23-4.13,4.81-6.22a16,16,0,0,1,9-5.83c1.59-.43,2.73-.3,3.16,1.64.5,2.24,1.21,4.44,1.85,6.65.31,1.08.38,1.86-1.19,1.7-2-.21-3.45.91-4.6,2.45-1.38,1.85-2.72,3.73-4.15,5.53-6.8,8.53-18.43,8.5-25.21-.07-1.48-1.86-2.82-3.84-4.3-5.7-2.48-3.13-5.69-3.19-8.22-.12-1.76,2.15-3.26,4.52-5.1,6.59-6.84,7.74-17.65,7.54-24.25-.41-1.52-1.83-2.86-3.81-4.33-5.69-2.91-3.71-6.11-3.66-8.94.07-1.62,2.16-3.14,4.41-5,6.39-6.83,7.45-17.84,7-24.12-.94-1.52-1.93-2.91-4-4.44-5.89-2.56-3.22-5.79-3.2-8.36.05-1.63,2.05-3.11,4.22-4.78,6.24a15.41,15.41,0,0,1-11.79,5.85C120.06,360.38,120.06,360.34,120.1,356Z"/><path class="cls-2" d="M290.05,172.46c2.8-.45,5.11-.91,7.45-1.14a3.25,3.25,0,0,0,2.9-2.06c1-2.14,2.08-4.26,3.37-6.88,1.17,2.3,2.22,4.18,3.08,6.14a4.1,4.1,0,0,0,3.91,2.87,64.1,64.1,0,0,1,6.63,1A22.89,22.89,0,0,1,313,177c-1.65,1.43-2.43,2.91-1.78,5.17a58.92,58.92,0,0,1,1.07,6.28,22.73,22.73,0,0,1-5.73-2.85,4.79,4.79,0,0,0-5.54.05c-1.67,1-3.45,1.89-5.42,2.95a18.1,18.1,0,0,1,.75-6.17c.48-2.24.15-4-1.72-5.46A62.51,62.51,0,0,1,290.05,172.46Z"/><path class="cls-2" d="M68.51,255.37c.42-2.75.68-5.17,1.19-7.54a3.31,3.31,0,0,0-1.1-3.38c-1.69-1.66-3.28-3.41-5.08-5.3,2.34-.37,4.62-.86,6.93-1.05a3.6,3.6,0,0,0,3.24-2.33c1-2.07,2-4.1,3.2-6.39a36.25,36.25,0,0,1,3.35,6.42,3.6,3.6,0,0,0,3.29,2.28c2.27.2,4.52.64,7.64,1.11-2.15,2-3.83,3.59-5.59,5.12a3.55,3.55,0,0,0-1.24,3.61c.42,2.26.76,4.53,1.17,7-1.76,0-3-1-4.18-1.81-2.91-2-5.6-2.12-8.49,0A33.58,33.58,0,0,1,68.51,255.37Z"/><path class="cls-2" d="M287.57,168.33c-.89.2-1.51.32-2.11.48-2.42.63-2.9,2.17-1.18,3.93q2.89,3,5.94,5.85c.91.85,1.06,1.24-.15,2.06-2.89,1.95-5.67,2.92-9.26,1.57A100.85,100.85,0,0,0,268.89,179c-1.08-.27-1.51-.7-1.42-1.74,0-.16,0-.32,0-.48-.13-5.1-.14-5.12,4.8-6.47,3.75-1,7.54-1.9,11.27-3A3.5,3.5,0,0,1,287.57,168.33Z"/><path class="cls-2" d="M93.19,235.15a3.72,3.72,0,0,1,4-1.17c4.72,1.38,9.49,2.62,14.25,3.83,1.26.32,1.82.78,1.86,2.2.13,5.18.19,5.18-4.84,6.57q-5.4,1.48-10.79,2.95c-1.77.48-6.67-1.3-7.7-2.7-.54-.74.1-1,.45-1.35,1.75-1.73,3.53-3.44,5.3-5.14,1-.93,2.21-1.76,1.62-3.37s-1.93-1.45-3.18-1.62C94,235.32,93.76,235.26,93.19,235.15Z"/><path class="cls-2" d="M60.54,235c-1.43.72-3.52.16-4,2.14s1.44,2.8,2.5,4a43.83,43.83,0,0,0,4.27,4.13c1.37,1.13.79,1.53-.35,2.31-2.9,2-5.71,2.75-9.25,1.36a81.39,81.39,0,0,0-11.21-3.09c-1.48-.35-1.84-1-1.85-2.46,0-5-.08-5,4.81-6.34,3.83-1,7.68-2,11.48-3A3.3,3.3,0,0,1,60.54,235Z"/><path class="cls-2" d="M320.16,168.31a3.67,3.67,0,0,1,4-1.05c4.72,1.36,9.48,2.6,14.25,3.78a1.81,1.81,0,0,1,1.66,2.05c.18,5.4.23,5.42-5,6.85-3.67,1-7.36,1.95-11,2.91-1.37.35-6.48-1.65-7.23-2.75-.47-.7.1-1,.48-1.37l5.25-5.17c1-.94,2.22-1.77,1.68-3.38s-1.93-1.44-3.17-1.61A9.44,9.44,0,0,1,320.16,168.31Z"/></g></g></svg>