<svg xmlns="http://www.w3.org/2000/svg" viewBox="0 0 271.76 208.06"><defs><style>.cls-1{fill:#e04b4e;}.cls-2{fill:#15b2ab;}</style></defs><title>Ресурс 21</title><g id="Слой_2" data-name="Слой 2"><g id="Задание_3" data-name="Задание 3"><path class="cls-1" d="M180.25,2.89a46.93,46.93,0,0,0-10.6,4.63,14.4,14.4,0,0,1,1.83.35c3.68,1,5.34,3.39,4.23,7.42-1,3.75-3.14,6.93-4.92,10.28l-.06.11a49,49,0,0,1,6.27.82,44.77,44.77,0,0,0,5.41-11.28C184,9.68,183.3,5.45,180.25,2.89Z"/><path class="cls-1" d="M110.13,12.51A41,41,0,0,0,96.22,4.43a9.26,9.26,0,0,1-4.45,3.91,28.75,28.75,0,0,1,13.32,6.84c2.37,2.13,2.36,4.41-.24,6.48a33.5,33.5,0,0,1-6.32,3.47A10.42,10.42,0,0,1,103,27.71a25.48,25.48,0,0,0,7-4.33C113.78,19.91,114,15.9,110.13,12.51Z"/><path class="cls-1" d="M269.36,162.59c-7.55-4.08-15.78-2.73-23.43-1.61a627.24,627.24,0,0,0-100.29,23.09c-8.65,2.77-17.09,6.23-24.38,13.25-1.47-6.39-2.11-12.58,1.18-17.65,10.87-16.73,9.63-34.95,7.6-53.36-1.91-17.45-2.74-34.84,1.84-52,2.62-9.86,7.68-18,16.31-23.71,3.19-2.11,6.07-3.79,10.48-3.06a18.49,18.49,0,0,0,13-3.27,10.78,10.78,0,0,1,7.63-1.79,39.08,39.08,0,0,1,25.85,12.65c9.6,10.26,16.28,22.28,21.51,35.19,4.17,10.27,7.74,20.79,12.58,30.8,4.68,9.69,10.77,18.11,20.22,23.73,5.61,3.34,8.82,8.54,10.88,14.54.38,1.11,1.68,2.95-1.12,3.07Z"/><path class="cls-1" d="M87.39,34.4c.39.82.81,1.53,1.9,1.65C99.75,37.22,103.74,45,106,53.62c2.8,11,1.24,22.14-1.24,33.1-1.59,7-3.49,14-4.48,21.2-1,7-.58,13.8,2.47,20.32a17.92,17.92,0,0,1,.76,12.79c-.33,1.18-.82,1.85-2,1.95A31.22,31.22,0,0,0,90,133.67q-16.61-8.3-33.9-15c-17.4-7.58-34.87-14.93-54.63-15.86,1.52-4.14,4.1-7.78,8.38-9.49,9.23-3.71,15.11-10.76,20-18.91,5.75-9.55,10.58-19.68,17.82-28.31,3.81-4.54,7.89-8.84,13.08-11.72,7.38-4.08,15-6,22.88-1Z"/><path class="cls-1" d="M269.19,162.41c3.39,2.42,3.14,5.13.89,8.27-3.28,4.57-7.72,7.67-12.56,10.25-10,5.33-20.72,8.81-31.69,11.58-22.21,5.59-44.38,11.42-67.13,14.51-9.56,1.29-19.24,1.78-28.71-.9-3.35-.94-7.72-2.36-8-5.64-.27-2.71,3.56-5.2,6.39-6.88,9.59-5.66,20.06-9.06,30.85-12.06-.88,9.77,1.36,14.83,7.62,17.62a13.81,13.81,0,0,0,15.47-3.4c4.57-5.14,4.42-11.42-.89-20.18,29.3-5.82,57.55-16.4,88-13Z"/><path class="cls-1" d="M56.05,118.7q17.3,6.7,33.9,15A31.22,31.22,0,0,1,101.43,143c.67,1.42,1.07,2.64-.83,3.64a17.16,17.16,0,0,1-7.79,2,49.35,49.35,0,0,1-15.63-2.17c-21.6-6.71-42.84-14.41-62.82-25.16C9,118.41,4.17,114.84,1,109.44c-1.8-3-1.15-4.71,2.43-5,8.79-.67,17,2,25,5,2.47.89-1.52,1.93-.66,3.29-2.35,5.34-1.15,9.91,3.36,12.91,3.48,2.3,7.77,1.11,11.78-3.27.48-.74,1.39-1.48,1.38-2.21-.11-5.72,2.92-4.31,6.15-2.89C52.2,118,54,119,56.05,118.7Z"/><path class="cls-1" d="M167.24,26.75a11.74,11.74,0,0,0-13.42,3.12c-.73.77-1.37,2.06-2.59,1.17-3.92-2.87-8.71-4.78-11.15-9.34-2-3.81.24-6.22,3.2-8.09,6.61-4.18,14-5.9,22.72-6.34.83.08,2.2.07,3.65.25a46.93,46.93,0,0,1,10.6-4.63c-1.83-1.54-4.5-2.48-8-2.73a57.63,57.63,0,0,0-35,8.42c-7.92,4.89-8.51,11.18-1.95,18a50.67,50.67,0,0,0,13.75,9.74c2.54,1.29,4.72,2.69,5,5.88s2.31,4.21,5.17,3.81a23,23,0,0,0,7.61-1.23c4.24-1.15,7.68-2.76,5.43-8.25-.88-2.16.53-3.79,1.69-5.46,1-1.49,2.06-3,3-4.53a49,49,0,0,0-6.27-.82C170,27.05,169,27.39,167.24,26.75Z"/><path class="cls-1" d="M98.12,25.33c-1.6.82-2.08-.18-2.83-1.15-2-2.6-4.84-3.37-7.86-3.46-2.31,1.29-3.12-.11-3.72-1.83a48.35,48.35,0,0,1-2-6c-.68-3.41,1.07-5.34,4.42-5.24a32.11,32.11,0,0,1,5.61.69,9.26,9.26,0,0,0,4.45-3.91,41.21,41.21,0,0,0-12-2.09c-5.27-.13-7.66,2.65-7.32,8,.3,4.62,2.34,8.68,4.38,12.72.67,1.32,1.85,2.69.88,4.19-1.75,2.7,0,4.39,1.49,6.2l3.79.95c2.23.68,5.12,2.4,6.34-.52,1.41-3.36,4-4.13,6.81-5.18q1.23-.46,2.43-1a10.42,10.42,0,0,0-4.44-2.58Z"/><path class="cls-2" d="M184.15,186.59a12.11,12.11,0,0,1-10.93,12.12,12.29,12.29,0,0,1-12.85-9.46c-1-4.53,1.14-8.21,5.55-9.54,2.25-.68,4.54-1.25,6.81-1.83C180.08,176,184.06,179.07,184.15,186.59Z"/><path class="cls-2" d="M42.9,122.35c-4,4.38-8.3,5.57-11.78,3.27-4.51-3-5.71-7.57-3.36-12.91,3.39-2,12.35-1,14.83,1.89C44.57,116.93,43.22,119.73,42.9,122.35Z"/></g></g></svg>