<svg xmlns="http://www.w3.org/2000/svg" viewBox="0 0 269.62 386.07"><defs><style>.cls-1{fill:#e04b4e;}.cls-2{fill:#15b2ab;}</style></defs><title>Ресурс 11</title><g id="Слой_2" data-name="Слой 2"><g id="Задание_2" data-name="Задание 2"><path class="cls-1" d="M101.44,114.93a4.35,4.35,0,0,1,3-1,29.61,29.61,0,0,0,6.09-1c19.1-4.85,30.55-25.14,21.5-41.79-8.43-15.51-11.89-31.72-14.33-48.69C116.45,13.72,113.79,5.17,104,0c.81,27.57.32,29-16.18,50.24-2.89,3.72-5.88,7.39-8.46,11.32-14.26,21.77-8.72,41,15,51.32a5.55,5.55,0,0,1,2.86,2.29A7.54,7.54,0,0,0,101.44,114.93Z"/><path class="cls-2" d="M269.13,344.83c-1.47-8.09-7.65-13-18.55-15a55.84,55.84,0,0,0-15.86-.35,158,158,0,0,0-35.29,7.77c-2.48.86-5.26,2.27-7.63,1.85-18.44-3.32-37-1-55.47-1.23-7.61-.09-9.17-2.45-9.12-9.57.32-44.79-.11-89.59.36-134.38.14-12.63-3.41-25.75,3.22-38,.71-1.29.3-3.67-.41-5.16-3.15-6.65-1.35-12.48,2.17-18.36,4.81-8.07,3.16-11-6.38-11.1-7.07-.11-14.14.24-21.22.35-2.36,0-4.77.35-4.63-3.43a4.62,4.62,0,0,1,1.12-3.35,7.54,7.54,0,0,1-4.2.24,6.8,6.8,0,0,1,.5,3.79c-.24,3.92-3.21,2.71-5.28,2.76-6.77.16-13.56,0-20.33.22-3.12.12-7.15-.24-8.71,3-1.87,3.88,1.54,6.52,4,9s6.32,5.17,3.43,8.81c-4.37,5.49-5.62,9.9.46,14.86.93.75.44,3.37.44,5.13,0,56,0,112,.11,168,0,5.42-1.66,7.14-7,7.05-16.8-.29-33.6-.12-50.41-.09C4.57,337.68,0,342.23,0,352.21c0,9.79,4.65,18.05,8.86,26.51,2.71,5.46,6.49,7.29,12.59,7.07,62.17-2.23,124.61,4.95,186.54-6,16.49-2.92,33.57-3,48.82-11C267.37,363.18,271.07,355.56,269.13,344.83Zm-11.93,13a26.19,26.19,0,0,1-8.14,5.08c-18.36,7.23-37.64,8.2-57.58,8.73,1.61-7.66,4.65-14.19,4.1-21.38-.19-2.54,1.83-3.35,3.9-4,15.13-5,30.47-9,46.59-8.42a23.57,23.57,0,0,1,7.71,1.71C262.16,342.82,263.86,351.62,257.2,357.81Z"/></g></g></svg>