<svg xmlns="http://www.w3.org/2000/svg" viewBox="0 0 433 343"><defs><style>.cls-1{fill:#18b1ab;}.cls-2{fill:#e04b4e;}</style></defs><title>Ресурс 7</title><g id="Слой_2" data-name="Слой 2"><g id="Адвент"><rect class="cls-1" x="26" y="24.27" width="381" height="294.45" rx="12"/><path class="cls-2" d="M421,0H12A12,12,0,0,0,0,12V331a12,12,0,0,0,12,12H421a12,12,0,0,0,12-12V12A12,12,0,0,0,421,0Zm-2,316a12,12,0,0,1-12,12H26a12,12,0,0,1-12-12V27A12,12,0,0,1,26,15H407a12,12,0,0,1,12,12Z"/></g></g></svg>