<svg xmlns="http://www.w3.org/2000/svg" viewBox="0 0 298.34 199.41"><defs><style>.cls-1{fill:#18b1ab;}.cls-2{fill:#e04b4e;}</style></defs><title>Ресурс 15</title><g id="Слой_2" data-name="Слой 2"><g id="Задание_7" data-name="Задание 7"><path class="cls-1" d="M229.79,1.57c14,1.29,26.6,5.12,33.47,19.2,3.77,7.73,3.31,15.49.89,23.37a102.76,102.76,0,0,1-7.68,17.93c-.52,1-1.19,2.05-.37,3.07s1.71,0,2.58,0c5.23,0,10.19,2,15.53,2,2.44,0,2.28,2.68.87,4.28a32.13,32.13,0,0,1-4.69,3.88c-3,2.29-4.37,5.41-3.18,8.84s4.24,5,8,4.84a36.43,36.43,0,0,1,3.9-.23c1.46.06,3.11.12,3.63,1.93a3.46,3.46,0,0,1-1.63,3.87c-3.39,2.38-6.22,4.9-7.78,9.11-.94,2.52-4.76,2.48-7.32,3.45-7.43,2.79-10.1,6.74-9.6,14.67a89.34,89.34,0,0,0,4.47,21.27c.86,2.7.95,4.84-.93,7.22-2.4,3-1.64,6.64-1.11,10.21.41,2.71.86,6.09-2.22,7.44-3.39,1.49-4.76-1.87-6.48-3.93-.95-1.14-1.74-2.42-2.71-3.54-2.13-2.47-4.5-4.86-8.1-3.56-3.94,1.41-5.72,4.67-5.75,8.73,0,3,.49,5.93.46,8.89a3.78,3.78,0,0,1-2.62,3.91c-1.68.47-2.95-.57-3.88-1.71-3.29-4-6.36-8-10.88-11-2.13-1.42-2-6.13-3-9.27s-.27-8-4.38-9-5.4,3.86-7.64,6.35c-3.35,3.73-5.46,8.56-12.1,7.83-2.51-.27-5.33,2.31-8,3.57-1.71.8-3.48,1.66-5.24.26-2-1.61-1.34-3.78-.66-5.65s2-3.57,2.87-5.41c2-4.17,2.36-8.4-1.07-11.94s-6.84-1.22-10.28.24c-3.06,1.29-6.17,5.36-9.48,2.15-3.47-3.39.4-6.71,1.85-9.93.77-1.68,2.12-3.71,1.72-5.18-1.49-5.55,2-8.61,5-12.12A73.22,73.22,0,0,0,176.28,103c3.61-7.3,2.79-11.63-3.05-17.24-3.3-3.17-7-5.89-6.36-11.56.23-2-1.89-4.32-2.88-6.52-.69-1.5-1.8-3.15-.38-4.65,1.59-1.69,3.44-.71,5.13.12.83.41,1.59,1,2.38,1.45,3,1.8,6.18,2,8.84-.3s2.61-5.56,1.57-8.79-5.65-6.18-2.61-9.38c2.88-3,5.88,1.4,8.89,2.33,3.33,1,7.11-.54,10.16,3,1.36,1.58,1.68-1.49,1.58-2.73a99.41,99.41,0,0,1-.45-16.18c.76-9.07,2.39-17.77,10-24C215.1,3.55,221.75.68,229.79,1.57Zm4.54,50.51A16.2,16.2,0,0,0,247,44.92c.88-1.23,1.84-2.5.19-3.86-1.39-1.16-2.33-.17-3.35.66-10.49,8.56-18.1,7.06-24.09-4.71-.66-1.29-1.17-3.12-3.1-2.41-2.25.83-1.28,2.77-.88,4.29C217.71,46.42,225.51,52.1,234.33,52.08Zm11.81-25.63c-.22-2.36-1.5-4-3.86-3.89s-3.66,1.75-3.58,4.13,1.4,4,3.8,3.9S246.06,28.84,246.14,26.45ZM224.58,78A3.8,3.8,0,0,0,228,73.77c0-2.45-1.41-3.86-3.81-3.78s-3.66,1.83-3.56,4.11A3.73,3.73,0,0,0,224.58,78Zm-5.51,38.55c0-2.36-1.11-3.93-3.57-4.06s-3.84,1.44-3.9,3.73,1.15,4,3.58,4.14S218.82,118.89,219.07,116.53ZM230.46,23.2c-.26-2.23-1.3-4-3.67-4-2.65,0-4,1.77-3.83,4.31.11,2.29,1.5,3.86,3.86,3.77S230.27,25.49,230.46,23.2Zm-6.73,72.12c-.13-2.14-1-3.85-3.52-4s-3.78,1.33-3.88,3.69,1,4,3.44,4.14S223.37,97.72,223.73,95.32Z"/><path class="cls-1" d="M13.25,54.52c14-3.47,14.38-3.49,13.54-18.05C25.08,6.79,58-6.92,79.66,3.42c6,2.85,9.5,8.22,12.31,14,1.22,2.5,2.23,5.12,3.24,7.71,2.6,6.72,6.16,8.59,13,6.75,1.4-.38,2.78-.82,4.25-1.25-.21,8.64-3.37,12.66-12,14-4.41.68-6.06,2.34-5.58,6.75C95.31,54.65,95,58,95,62c4.59-3.91,10.78-2.38,15.21-6a2.75,2.75,0,0,1,3.63.21c1.33,1.32.71,2.77,0,4.12-.83,1.66-1.83,3.24-2.63,4.92-1.39,3-1.26,6,1.06,8.3s5.37,2.31,8.31.73a9.28,9.28,0,0,1,1-.58c2.09-.86,4.17-3.61,6.43-1.27,2.12,2.19-.14,4.46-1.16,6.55-.41.84-1.26,1.68-1.22,2.48.43,6.94-4,11.12-8.53,15.2-2.2,2-.89,3.07.77,4.32,4.16,3.13,8.25,6.36,12.43,9.48,2,1.47,2.64,2.6.56,4.79-2.78,2.91-2.37,6.87-2.46,10.61-.07,3-.26,6.61-3.76,7.31s-4.93-2.71-6.13-5.42c-2.18-4.93-4.6-10.36-11-9.14s-6.72,7.13-6.83,12.53a18.57,18.57,0,0,1-.29,3.33c-.43,2.22-.88,4.62-3.6,5.08s-4-1.53-5.14-3.53c-1.25-2.28-2.18-4.75-3.56-7-1.92-3-4.82-5-8.46-4.12s-5.9,3.8-6.31,7.68c-.29,2.77-.11,5.59-.46,8.35-.29,2.21-1,4.66-3.57,5.14s-4-1.46-5.1-3.55-1.94-4-3.09-5.94c-2.08-3.46-5.12-5.8-9.23-4.85S46,136.07,45.54,140c-.29,2.58,0,5.23-.36,7.8-.3,2.18-.76,4.63-3.55,5.09-2.42.4-3.79-1.32-4.84-3.11-2.42-4.12-3.77-8.91-8.56-11.38-1.76-.9-.24-2.71.37-3.93,2.24-4.5,4.4-9.06,7-13.35,1.8-3,2-5-1.9-5.27-9.24-.55-12.13-9.34-18.35-13.79-2.23-1.59-1.26-3.67,1.3-4.52a5.49,5.49,0,0,1,2.75-.2c4.55,1,8.57,0,10-4.65,1.35-4.36-1.42-7.29-5.1-9.51-1.84-1.1-4.24-2.58-3.1-5.2.92-2.11,3.49-2.32,5.42-1.65C31.34,78,35,72.28,39.84,74.78c1.23.63,1.25-1.34.75-2.35-1.72-3.51-3.52-7-5.26-10.48-1.35-2.71-3.27-.83-4.82-.48C21.72,63.47,18.87,62.42,13.25,54.52ZM66.52,27.93A20.59,20.59,0,0,0,83.89,20c1.08-1.32,2.09-3.09.4-4.42-1.51-1.2-2.62.38-3.7,1.42-10.07,9.6-23.66,8.5-31.77-2.57-.86-1.17-1.34-3-3.22-2.48S44,14.2,44.05,15.67C44.5,23.73,41.18,29.31,33.4,32c-1.51.52-3,1.2-2.38,3.09.73,2.29,2.59,1.68,4.18,1.12,5.52-2,9.89-5.31,11.79-11,1-2.91,1.91-3.46,4.52-1.53C55.84,26.82,60.9,28,66.52,27.93ZM62.41,61.69C71,61.78,78.48,56,79.87,48.27c.25-1.43.79-3.15-1.25-3.68-1.59-.4-2.16.95-2.75,2.15C70.05,58.62,63.44,60.29,53,52.51c-1.1-.82-2.06-1.68-3.36-.47s-.61,2.32.26,3.38A16,16,0,0,0,62.41,61.69ZM57.68,37.52c-.39-2.18-1.52-4-3.84-3.86a3.73,3.73,0,0,0-3.79,4.4,3.59,3.59,0,0,0,4,3.57C56.38,41.47,57.55,39.86,57.68,37.52ZM69,30.08a3.79,3.79,0,0,0-3.57,4.12c0,2.42,1.26,3.92,3.69,3.93s3.67-1.73,3.67-4S71.44,30.38,69,30.08Zm11,78.7c-.47-2-1.4-3.85-3.9-3.86s-3.71,1.71-3.77,4a3.54,3.54,0,0,0,3.75,3.94C78.66,112.88,79.61,111.1,80.06,108.78ZM71,87.39c2.27-.35,3.69-1.62,3.62-4.06s-1.41-4-3.78-4a3.7,3.7,0,0,0-3.73,4C67.12,85.7,68.47,87.17,71,87.39Zm6.55,8.07c-.45-2.16-1.31-4-3.89-3.9a3.67,3.67,0,0,0-3.69,4.06c0,2.42,1.35,3.86,3.82,3.86S77.21,97.7,77.52,95.46Z"/><path class="cls-2" d="M145.66,153.47c1.89-9.43,5.77-16.91,11.33-24.32.51,3.35-1.64,4.94-2.63,7-2.05,4.22-2.39,8.43.93,12s6.83,1.33,10.25-.25c3.08-1.42,6.41-5.08,9.58-2.06,3.44,3.29-.08,6.83-1.8,10-2.34,4.27-3.19,8.75.43,12.42s7.55,1.39,11.29-.52c1.87-1,3.47-3,6.06-2.09-14.78,19.79-34.16,17.61-44.39-5-1.94,1.82-1.48,4.43-2.33,6.56-5.66,14.15-20.12,19.56-33.47,12.33-6.32-3.42-11.3-8.45-16.08-13.73-4-4.45-10.64-3-12.41,2.7-2,6.6-4.37,13.09-8.1,19-6.9,10.8-15.77,14.33-26.55,10.7-11.19-3.76-17.45-12.86-16.35-25,.46-5,1-8.85-4.65-11.7-4.1-2.05-4.35-15.54-1.14-18.69,1.37-1.34,2.34-.23,3.24.66,2.19,2.15,2.85,5.19,4.36,7.74,2,3.45,5,6,9.1,5.12s5.88-4.34,6.4-8.28c.34-2.58.13-5.22.45-7.8.28-2.25.92-4.58,3.63-5.05s4.07,1.46,5.23,3.42c.85,1.43,1.47,3,2.2,4.51,1.92,4,4.88,7.16,9.47,6.39,5-.83,6.44-5.14,6.83-9.69.17-2,0-4.11.23-6.13.27-2.23.75-4.61,3.38-5.26s4.16,1.26,5.34,3.18c1.07,1.73,1.81,3.66,2.71,5.5,1.87,3.85,4.89,6.63,9.21,5.83s6.15-4.46,6.58-8.7c.22-2.22.24-4.46.51-6.68.28-2.44.7-5.08,3.67-5.58s4.28,1.83,5.47,4c1,1.78,1.67,3.74,2.65,5.53,1.94,3.54,4.94,6,9,5.18s6-4.2,6.41-8.25c.35-3.33-.07-6.76,1.1-10,.75-2,1.8-3.19,4.06-1.15,6.9,6.22,8,12.84,3.06,20.67-.81,1.28-1.2,2.2-.29,3.47C142.12,144.78,143.72,148.74,145.66,153.47Z"/><path class="cls-2" d="M263.12,152c2.51,9.75,4.11,18.46,1.62,27.25-2.89,10.27-11.05,14.47-20.7,16.26-9.13,1.69-15.38-2.78-19.91-10.22-2.39-3.94-4.55-8-4.83-13.08,1.6,2.06,3.09,4.22,4.84,6.14,2.29,2.5,4.87,5.17,8.64,3.43,3.46-1.61,5.12-4.81,5.12-8.64,0-2.59-.49-5.18-.49-7.78,0-1.85.28-3.87,2.41-4.62s3.59.48,4.82,2c1.41,1.73,2.68,3.58,4.08,5.31,2.18,2.7,4.67,5.26,8.49,3.74s5.33-4.9,5.42-9C262.7,159.64,261.29,156.38,263.12,152Z"/><path class="cls-2" d="M279.62,100.68a13.32,13.32,0,0,1,1.61-1.41c3.86-2.36,6.32-5.66,4.68-10.2s-5.71-4.69-9.86-4.23c-2,.22-4.5.55-5.47-1.69-1.12-2.6,1.11-4,2.91-5.36.89-.67,1.93-1.17,2.74-1.92,2.66-2.45,4.2-5.52,2.7-9-1.36-3.15-4.29-4.53-7.78-4.35-1.25.07-2.49.26-4.26.46,9.6-6.34,24-4,28.4,4.82C301.51,80.31,299.14,93.59,279.62,100.68Z"/><path class="cls-2" d="M161.22,72.12c-11.24-12.59-11-25.58-.48-34.54,5.22-4.46,10.93-5.42,17-2.17,4.35,2.31,8.63,4.8,12.2,8.67-2.51.77-3.69-1.13-5.26-1.86-3-1.39-6-1.44-8.34.79s-2.63,5.29-1.36,8.28c.87,2,2.11,3.92,3.06,5.93.62,1.35,1.14,2.86-.17,4.13s-2.75.72-4.16.12a5.82,5.82,0,0,1-1-.47c-3.34-2.36-7-4.32-10.75-1.47C158.05,62.52,159.56,66.82,161.22,72.12Z"/><path class="cls-2" d="M129.79,82.16c-.35-2.15,1.63-3.28,2-5.07.57-2.87.7-5.69-1.72-7.72s-5.16-1.89-7.84-.37c-1,.56-1.88,1.23-2.87,1.73-1.53.77-3.26,1.43-4.72.2-1.62-1.36-.65-3.09,0-4.6a38.06,38.06,0,0,1,1.88-3.43c1.82-3.21,2.19-6.6-.48-9.3s-5.73-2-8.79-.37c-.89.49-1.66,1.66-3,1,9.26-10.84,20.41-13,28.26-5.5C141.93,57.72,140.85,71.24,129.79,82.16Z"/><path class="cls-2" d="M30,72.05c-1.52,1.16-3.21.45-4.78.43-3.35,0-6,1.33-7.21,4.29-1.36,3.31.24,6.14,2.75,8.44a4.7,4.7,0,0,0,.44.34c2.24,1.77,6.26,3,4.87,6.49-1.21,3.07-4.94,1.52-7.63,1.56-3.26.05-5.92,1.22-7.09,4.4s.18,5.83,2.49,8c1,1,2.22,1.75,3.78,3C3.92,105.31-2.88,93.76,1.15,81.76S15.2,66.25,30,72.05Z"/></g></g></svg>