<svg xmlns="http://www.w3.org/2000/svg" viewBox="0 0 315.06 268.42"><defs><style>.cls-1{fill:#15b2ab;}</style></defs><title>Ресурс 16</title><g id="Слой_2" data-name="Слой 2"><g id="Задание_6" data-name="Задание 6"><path class="cls-1" d="M238.21,99.52c-2.75-1.83-4.93-2.74-6.34-4.34s-6.53-4.4.39-5.79c1.09-.22,1.16-1,1.15-1.84a7.41,7.41,0,0,0-.26-1.82c-1.39-4.84.71-10.56-1.16-14.47-2-4.28-8.89-.91-13.12-3.26-1.07-.59-2.28-1-3.32-1.57-2.14-1.28-4.9-2.88-3.68-5.59s3.59-.08,5.4.25a43.91,43.91,0,0,0,17.14-.9c-2.78-2.71-6.52-4.07-7.75-7.64-.39-1.15-1.08-2.39.14-3.36a2.35,2.35,0,0,1,2.86.3c11.14,8.14,18-3.05,26.55-6,2.73-1,.69-3-.3-4.45-5.75-8.25-11.78-16.33-17.17-24.81-2-3.08-6.67-7.75-2.59-10.44,3.33-2.2,5.81,3.88,8,6.76,5.42,7,9.84,14.69,16.2,20.9,1.62,1.58,3.21,4.82,5.77,3.31,2.11-1.24,1.49-4.46,1-6.91-1.19-6.25-2.49-12.47-3.65-18.72-.61-3.35-1.93-8.1,2-9,3.17-.74,3.66,4.27,4.44,7,1.44,5.07,2.33,10.29,3.7,16.58,2.51-3.15,4.38-5.68,6.45-8,1.15-1.31,2.52-3.29,4.55-1.83,1.69,1.23,1.22,3.32.58,5.12-1.21,3.4-4,5.67-6.1,8.44-1.7,2.25-3.9,4.25-4.05,8.16,8.32-.68,14.88-4.5,21.22-9,1.82-1.31,4-4.67,6-2.66,2.62,2.65-.47,5.39-2.48,7.18a53.78,53.78,0,0,1-25.58,12.78,37.05,37.05,0,0,0-23.94,16c-4.65,6.73-6.08,13.8-3.1,21.56,1.4,3.64,2.92,7.23,4.26,10.89.73,2,1.67,4.45,3.81,4.29,2.87-.22,1.76-3.24,1.88-5,.45-6.64-1.43-13-2.6-19.46-.48-2.66-2.24-7.25.44-7.8,3.43-.7,3.43,4.18,4.16,6.86A82.41,82.41,0,0,1,262,94.62c9-4.18,17.4-7.81,25.1-12.82,2.86-1.86,3.29-4.53,1.49-7.49-.54-.87-1.08-1.75-1.55-2.66-1.34-2.61-3.06-5.84.23-7.6,3.55-1.89,2.1,3.66,4.71,4.13,2.49-1.42,2.06-4.11,2.32-6.4.33-2.85.19-5.75.44-8.61.16-1.8.38-4.11,2.66-4.26s2.8,2.26,3.17,3.93c1.17,5.31.4,10.61-.6,15.88-.57,3-1,6-1.67,9.78,4.64-2.35,6.08-6.15,7.52-9.79,2.52-6.36,3.08-13.16,4.08-19.85.27-1.8-.38-4.78,2.7-4.54,2.22.17,2.31,2.63,2.39,4.44,1.07,23-11.3,40.77-34.21,45.72-5.63,1.21-11.24,2.32-16.14,5.63-2.43,1.64-2.66,2.84-.33,5.09,6.89,6.64,13.39,7,20.09.7.72-.68,1.21-1.93,2.39-1.14a2.2,2.2,0,0,1,.61,2.8c-1.32,2.52-2.83,4.94-4.59,8,6.33-.83,10.49-5.07,15.44-7.63,1.57-.81,3.26-3.77,5.09-1.24,1.54,2.13-.37,4.23-2.09,5.8-4.27,3.89-9.44,6.32-16.2,9,8.57,2.41,15.7,1.22,22.76,1.33,1.79,0,4.7-1.57,5.21,1.22.35,1.95-2,3.41-4,4.11-3.05,1.06-6.16,2-9.79,3.09,4.31,4,7.28,8.55,5.38,14.54-.93,2.92-.86,6.88-5.52,7a1.61,1.61,0,0,0-1.63,1.54c-.42,7.87-4.19,3-6.72,1.66a23.75,23.75,0,0,1-5.33-4.15c-4.36-4.42-9.31-6.36-15.56-4.84-3.48.84-6.92-.33-10.31-1.15-16.86-4.08-28.85,1-37.34,15.78a71.68,71.68,0,0,1-6.39,9.77c-2.19,2.67-4.89,5.55-8.66,1.72a2.6,2.6,0,0,0-1.61-.65c-3.11-.13-4.91,6-8.66,2.12-3-3.11-6,1.22-8.83-.91,4.76,4.52,10.25,7.8,14.67,12.41,7.52,7.83,8,14.25,1.31,22.78-3.06,3.92-6.18,8-7.17,12.79-2.61,12.68-10.51,20.59-21.87,25.53-4,1.75-5.53,3.48-2.58,7.59,1.32,1.84,2.6,4.74.76,6.82-1.45,1.65-3.86.21-5.83-.14-.8-.14-1.61-.33-2.4-.53-16.13-4-18.82-7.16-16.75-23.47,2.31-18.18.47-36-2.42-53.9-.84-5.18-3-7.33-8.53-6.45-8.71,1.38-17.5,2.33-26.29,3.11-17.53,1.55-34.58.51-49.2-11-2.35-1.85-4-1.19-6,.31-8.08,6.3-15.28,13.63-23.45,19.87-4.36,3.32-3.16,8.59-1.49,13.15,4.11,11.14,9.4,21.92,9.58,34.17,0,2,1.65,3.21,2.87,4.58a58.14,58.14,0,0,1,11.06,19.06c1.22,3.38.38,4.6-3.32,3.67-5.62-1.4-10.44-4.38-16-6.85,2,2.43,3.89,4.89,5.91,7.28,1.82,2.16,1.89,3.7-1.37,3.91a46.54,46.54,0,0,1-23.83-4.91c-2.43-1.19-2.38-3.68-2.8-5.83-4.51-22.52-7-45.42-12.69-67.73-.54-2.13-.45-3.54,2.08-4.07,4.73-1,5-4.39,3.82-8.08-1.91-5.94-1.48-9.6,6-11.38,7.85-1.87,9.63-6.87,7.74-16.07-.83-4-1.83-8-2.78-12-.91-3.82-.76-7.72-.53-12-4.17.5-7.83,3.54-12.25,1.22,4.55-6.45,5.64-14,8.22-21.1,2.07-5.66,4.93-10.44,11.57-11.46a3.26,3.26,0,0,0,1.72-.56c9.6-9.3,21.37-7.89,33.11-6.84a600.88,600.88,0,0,0,64.63,2.13c8.95-.16,17.37-3.1,25.85-5.41,11.73-3.19,22.65-1.79,33.42,3.55,11,5.46,21.68,11.83,34.46,12.49C224,100.59,230.63,101.48,238.21,99.52Zm-76.09,79.9a28.16,28.16,0,0,0-.68,3.48c-.74,13.68.07,27.36-3,41-1.67,7.53-.17,15.8,7.29,22.76.46-4.54.66-7.93,1.17-11.28,1.08-7.12,3.48-12.69,12.12-12.85,3.95-.07,6.82-2.53,8.56-6.15,1.42-3,2.57-6.13,4.44-8.79,3.66-5.23,1.77-8.45-3-11.41C180.17,190.73,170.35,186.87,162.12,179.42Zm-145,23.31-1.8.33c0,2.19-.08,4.38,0,6.56.43,9.67,3.2,19,4.61,28.45.94,6.33,3.79,10.44,9.8,12.43C32.59,232.6,24.52,217.75,17.07,202.73Z"/></g></g></svg>