<svg xmlns="http://www.w3.org/2000/svg" viewBox="0 0 194.77 317.11"><defs><style>.cls-1{fill:#18b1ab;}.cls-2{fill:#e04b4e;}</style></defs><title>Ресурс 14</title><g id="Слой_2" data-name="Слой 2"><g id="Задание_8" data-name="Задание 8"><path class="cls-1" d="M123.16,72.75c2.46,1,6.37,4,3.55-2.5-.65-1.48-.94-3.13.65-3.78,2.29-.93,2.65,1.25,3.27,2.77,3.43,8.46,4.16,8.59,13.21,5.32a23.44,23.44,0,0,1,12-1.23c.44,4.92-2.91,7.48-6.1,10.09,4.15,4.13,9.46,5.6,13.79,8.6,3,2.07,6.93,3.8,5.38,9-1.43,4.78-4.85,5.27-9,5.5-13.46.76-15.8,4.45-10.75,16.82a68.11,68.11,0,0,0,4.4,9.15c9.5,16,13.24,33.06,10.48,51.55-1.25,8.33,1.92,14.57,9.57,18.53,4.29,2.22,8.35,4.89,12.56,7.28,7.3,4.13,9.78,10.31,8,18.38a84.65,84.65,0,0,1-7.2,21.22c-3.3,6.32-10.48,9.25-13.73,15.72a5.4,5.4,0,0,1-5.64,2.65c-2-.37-2.19-2.48-2.15-4.12.07-2.54-.28-5.3,2.8-6.8,11-5.36,12.76-17.06,17.5-26.5,2.23-4.45-2.51-7.62-6.55-8.78-5.78-1.65-11.83-2.39-17.74-3.61-2.6-.53-3.24,1-4,3-8.17,21-13.8,42.62-11,65.15,1,8,.76,16.93,5.82,24.23.81,1.16,2,2.69.72,3.87-2,1.78-4.59,1-6.93.49-1.7-.34-3.87-1.29-2.74-3.28,4.27-7.53-3.89-13-2.9-20.25s-2-14.26-5.51-20.74c-1.87-3.44-1.7-6.63-.15-10.33,5.64-13.42-.56-32.87-12.65-40.62-3.9-2.5-8.29-2.39-12.65-2-12.6,1.3-25.15,1.89-37.27-2.81-4.08-1.59-6.45-.3-7.73,3.72-1.4,4.37-2.74,8.77-4.4,13-1.84,4.72-3.56,9.58-6.15,13.89-5.53,9.2-5.74,9.07,1.61,16.71.34.35.69.69,1,1,14.8,15.39,15.75,19.4,9.38,39.36-.42,1.33-.58,3.21-2.54,2.78-3-.65-5-2.8-6.81-5.12-1.12-1.44-.9-3.07.58-3.67,8.16-3.32,3-11.27,5.78-16.56,1.14-2.18-2.41-3.8-4.4-5.05-7-4.34-14-8.73-21.11-12.77-3.66-2.06-4.34-4.44-3.08-8.28,2-6.13,2.08-12.22-2.54-18.34-3.21,8.79-9.28,14.62-16.26,19.54-3.73,2.62-4.2,6.39-4.28,10.22-.23,11.61-.05,23.23-.32,34.84-.16,7,6.3,10.58,8.25,16.59-3.27.83-6.11.15-8.92-.41a10.79,10.79,0,0,1-3.08-1.44c2.87-7-4.76-12.06-3.27-19.12a61.65,61.65,0,0,0-3.4-37c-1.33-3.2-.3-4.67,1.58-6.83,11.6-13.31,16.16-27.71,7.33-44.59-5.74-11,.54-20.59,4.84-30.22,1-2.17,2.57-4.06,4.19-6.58-8.13.2-8.26-7.39-12.56-10.77,2.09-2.94,4.09.72,5.75-1.43-.89-5.13-1.88-10.63,3.37-17-2.27,8.81-1.25,15.16,5.49,19.4,2.57,1.61,4.91,2.46,8,.6,8.3-5,17.25-5.25,26.67-3.62,17.05,2.95,34.19,3.41,51.22-.37,8.35-1.86,11.82-6.55,10.12-14.62-3-14.17-2.75-28.34-1.4-42.61.17-1.76,1.53-4.14-.55-5.27-1.76-1-3.69.41-5.32,1.52-.2.13-.42.24-.61.38-5.55,4.15-10.93,2.61-16.25-.49-1.3-.75-1.63-1.85-.46-2.87,4.3-3.73,8.36-10,14.67-7.42,9.59,4,13.19-3.52,18.49-7.83,3.22-2.63-3.24-3-1.84-5.54Z"/><path class="cls-2" d="M103.12,72.85c-1.83-2.34-4.71-2.33-7.16-2.72-12.2-1.93-20.81-8.81-26.72-19.22C65.16,43.73,60.14,38,52.08,35.09,49,34,46.08,32,45.29,27.39c5.5-.21,8.24,5,13.28,5.82.17-3.37-2.52-4.94-4.19-7-2-2.45-4.15-4.75-5.23-7.78-.5-1.44-.66-3.18.64-4,1.59-1,2.65.61,3.44,1.72,2.48,3.54,4.84,7.18,7.78,11.59.49-2.16.79-3.54,1.29-5.75C71.5,36,72.68,53.9,87.9,65.9c-1-11.5-11.36-17.5-9.61-28.31,5,2.46,2.4,8.09,6,10.79,2.49-2.05.22-6.12,3.11-8,2.13,2.16,1.84,4.88,1.81,7.44-.11,9.53,4,16.8,11.9,21.84a4.33,4.33,0,0,1,2,3.24Z"/><path class="cls-2" d="M123.33,72.57c-6.23-.07-8.71-7.23-14.7-7.78,0,0,.22.2.22.2-6.65-9.46-9.9-20.22-12.16-31.4-.9-4.43-3.92-7.65-7.09-10.75s-6-6.17-5.79-11.56C89.38,13.15,90,19.3,95,21.5c.7-7.31-7.29-13.57-2.27-21.5,4.77,4.76,3.59,10.93,6,16.06,2.28.8,1.08-2.93,3.48-2.56,3.48,15.51-.48,32.72,8.68,47.38C114.5,52,106.3,42.69,112.13,33c3,4.56-.63,8.52,1.37,12.13,3.64-.28,2.34-5.06,7.6-6.59-4.94,12.42-6.46,24,2.05,34.27Z"/><path class="cls-2" d="M103.13,72.9c.87-1.76,5.68-2.11,1.94-5.57-1.18-1.09-2.55-2.81-.82-4.19,2.09-1.68,3.19.81,4.59,1.84,0,0-.22-.21-.21-.19,1.61,5.07,5.93,7.72,11.2,11.53-6.79-.51-11.32-4.34-16.72-3.48A.21.21,0,0,1,103.13,72.9Z"/></g></g></svg>