<svg xmlns="http://www.w3.org/2000/svg" viewBox="0 0 415.15 381.55"><defs><style>.cls-1{fill:#18b1ab;}.cls-2{fill:#e04b4e;}</style></defs><title>Ресурс 9</title><g id="Слой_2" data-name="Слой 2"><g id="Регистрация"><path class="cls-1" d="M414.18,281.63q-18.18-69.51-36.28-139c-2.13-8.21-5.54-15.47-13.81-18.93-3.63-1.52-3.1-4.36-3.7-7.09-2.13-9.67-9.1-15-18-13.93a43.13,43.13,0,0,1-7.74.23c-3.35,1.68-6.75,4.23-10.49,4.69-15.51,4.22-31,8.3-46.39,12.67-12.08,3.42-16.53,11.84-12.66,23.19.62,1.82,2.7,3.58,1,5.58-6.2,7.2-4.82,16.52-7.09,24.8-4.9,17.92-9.56,35.91-14.1,53.92-4.17,16.53,6,29.16,22.76,29,5.45-.06,9.66-3,14.69-5.83,5.19,19.78,10.57,38.75,15.08,57.93,3.25,13.8,11.77,22.25,24.26,27.52,28.87,12.18,66.16,1.76,84.28-23.79C412.45,303.33,417.29,293.51,414.18,281.63Zm-61.6-69.29c.78,8.89-2.33,14.85-10.42,18.37C341.93,222.59,344.6,216.51,352.58,212.34Zm-16.32,20.43c-8.32.13-14.55-2.76-18.27-11.25C330.18,223,330.18,223,336.26,232.77Zm-20.39,8.58c5.4-6.39,11.65-8.33,19.74-5.22C329.94,242.68,323.74,244.82,315.87,241.35Zm11.58,16c-.64-8.8,2.55-14.8,10.6-18.58C338.22,247.09,335.58,253.39,327.45,257.3Zm5.91-46.72c7.47,6.58,7.58,6.94,5.84,20C332.37,224.55,330.59,218.17,333.36,210.58Zm13.37,48.6c-7.57-7-8.3-9.78-4.92-19.25C348.61,248.22,348.61,248.22,346.73,259.18Zm-2.52-21.53c10.25-.55,11.88.4,17.88,10.46C353.83,248.46,347.75,245.31,344.21,237.65Zm-.17-3.78c6.21-6.71,12.32-9.14,20.26-5.7C359.23,235,352.77,236.11,344,233.87Z"/><path class="cls-2" d="M334.63,102.86C319.6,102,308,93,297.54,82.6c-6.18-6.14-3.47-16.51,4.13-20.44s10.39-10.53,10.54-18.59c.05-2.78.83-6.3-3-7.28-3.11-.81-4.68,1.87-5.93,4.15a133.21,133.21,0,0,0-7.05,14c-1.85,4.6-4.79,6.13-9.46,5.35-21.61-3.6-42.09-11-62.45-18.67-3.5-1.33-4.25-2.91-1.32-6.24,5.06-5.74,6.59-12.86,5.33-20.39C226.92,5.81,218-1.15,210.3.16A12.14,12.14,0,0,0,205,2.44a22.68,22.68,0,0,1,4.59,2.69,11.73,11.73,0,0,1,3.2-.41c6.42,0,12,7.27,11.64,14.76s-5.21,15.29-9.45,14.84c-1.93-.21-4-2-5.88-4.62-1.64.32-3.4.52-5.07.8a48.56,48.56,0,0,0,4.32,6c-7.35,0-12.83-.08-18.29,0-5.3.11-11,.46-14.68,4.45-10.06,10.84-20.59,21.43-27.47,34.76-4.92,9.54-5,19,2.46,27.55,1.54,1.77,3,3.22,2,6.08-4.39,13.54-8.1,27.24-8.78,41.6-.11,2.16-1.8,4.22-2.66,6.37-.69,1.74-1.55,2.77-2.64,3.11a37.9,37.9,0,0,1,6.53,3.89c-1.39-2.51-1-5.73,2.71-10.38.94-1.18.85-3.35.87-5.07.12-8.81,2.19-17.24,4.64-25.63,3.45-11.81,3.37-11.83,14.05-7.12.79.35,1.62.65,2.44.92,2,.67,4,1.2,5.71-.51s1.41-4,.41-5.66C171.27,103.45,170,95,167.21,87.1c-.84-2.41-1.61-5.4-5-5.11-2.75.23-3.18,2.94-4.1,5.06-1.75,4-.73,9-4,12.79-6.6-8.14-6.86-14.21-1.18-24.18,5.07-8.91,12.1-16.31,18.73-24,9.07-10.54,35.1-14.5,47.78-8.35A245.48,245.48,0,0,0,284,63.67c6.43,1.14,8.28,1.84,6.25,8.64s2,12.36,6.77,17c6.6,6.34,14.68,10.32,22.88,14.11,1.83.84,4.67.6,5,4l-.72.2C327.88,107.09,331.28,104.54,334.63,102.86ZM163.25,90.25c2.34,7.16,4.59,14.08,6.93,21.27C157.42,106.51,156.55,103.79,163.25,90.25Z"/><path class="cls-1" d="M134.24,159.35c-4.65-3-9.38-5.83-14.24-8.44-9.66-5.19-18.36-2.3-23,7.69-1.26,2.7-2,5-5.62,5.58-8.78,1.44-13.93,7.46-18.1,14.92-22.54,40.3-45.08,80.61-68,120.7-6.13,10.72-6.62,21.41-3,32.68,8.15,25.45,34.91,46.69,61.61,48.8,21.16,1.67,38-4.28,48-25.06,7.8-16.15,17.44-31.41,26.61-47.68,8.15,10.84,18.35,13.27,29.81,8.72,11.62-4.62,12.1-14.95,12-25.58-.23-17.43,0-34.87,0-52.31,0-7.21,3.16-14.45.45-21.57-1.35-3.55-.37-5.75,1.57-8.66,6.29-9.45,4.25-18.47-5.43-24.58-7.37-4.65-14.81-9.23-22.5-13.31a49.13,49.13,0,0,1-6.93-4.08h0a9.9,9.9,0,0,1-2.64-2.88,37.9,37.9,0,0,0-6.53-3.89C137.19,160.75,135.87,160.39,134.24,159.35ZM83,275.83c-8.55.22-14.62-2.65-18-10.21C75,264.77,75.83,265.25,83,275.83Zm-9,24.79c-2.12-10.08,5.77-14.85,10.79-21.12v0c-7,3-13.13,9.72-22.24,5.08,6-8.25,14-7.37,22.24-5.09h0l0,0C85.11,288.56,83.33,296.52,74,300.62Zm6.2-47.73c6.47,6.14,8.43,12.38,5.14,20.39C79.15,267.6,77.21,261.4,80.18,252.89Zm13.48,49.87c-7.65-5.11-7.84-12.06-6.1-20.31C94.8,288.08,95.38,294.78,93.66,302.76ZM90.9,280.61c9.19-1.38,14.09,3.18,18,10.25C100.32,291.77,94.55,288.65,90.9,280.61Zm-.52-5.23-.42.19c.07-.14.15-.28.23-.41-3.7-9,1-14.42,8.2-19.44,3.67,9.64-4.69,13.5-8.2,19.44l.06.14.13.08c6.36-2.91,12.14-8.5,20.08-4.27C102.89,279.59,99.24,280.37,90.38,275.38Z"/></g></g></svg>