<svg xmlns="http://www.w3.org/2000/svg" viewBox="0 0 413.2 437.55"><defs><style>.cls-1,.cls-2{fill:#fff;}.cls-2{fill-rule:evenodd;}.cls-3{fill:#15b1aa;}.cls-4{fill:#df4c4c;}</style></defs><title>Ресурс 8</title><g id="Слой_2" data-name="Слой 2"><g id="Адвент"><path class="cls-1" d="M8.79,391.29V364.43h2.73V387h.08l14.8-22.61h3.07v26.86H26.74V368.45h-.08L11.87,391.29Z"/><path class="cls-1" d="M36.61,391.29V364.43h2.73v11.65H54V364.43h2.73v26.86H54V378.58H39.34v12.71Z"/><path class="cls-1" d="M74.86,392v-3.22a13.46,13.46,0,0,1-9.23-3.23,10.49,10.49,0,0,1-3.45-8.12,10.2,10.2,0,0,1,3.51-8.12,14.15,14.15,0,0,1,9.17-3.19v-2.39h2.73v2.39a14.12,14.12,0,0,1,9.16,3.19,10.2,10.2,0,0,1,3.51,8.12,10.49,10.49,0,0,1-3.45,8.12,13.43,13.43,0,0,1-9.22,3.23V392Zm0-5.61V368.52a10.51,10.51,0,0,0-7.21,2.64,8.36,8.36,0,0,0-2.58,6.32,8.21,8.21,0,0,0,2.52,6.3Q70.11,386.14,74.86,386.4Zm2.73,0q4.74-.27,7.26-2.62a8.18,8.18,0,0,0,2.53-6.3,8.4,8.4,0,0,0-2.58-6.32,10.53,10.53,0,0,0-7.21-2.64Z"/><path class="cls-1" d="M118.3,388a14.54,14.54,0,0,1-20,0,14.8,14.8,0,0,1,0-20.22,14.51,14.51,0,0,1,20,0,14.8,14.8,0,0,1,0,20.22Zm-18.08-1.82a11.27,11.27,0,0,0,16.13,0,12.82,12.82,0,0,0,0-16.6,11.22,11.22,0,0,0-16.13,0,12.82,12.82,0,0,0,0,16.6Z"/><path class="cls-1" d="M128,391.29V364.43h7.59a10.79,10.79,0,0,1,6.64,1.82,7.09,7.09,0,0,1,0,10.72,11,11,0,0,1-6.68,1.84h-4.78v12.48Zm2.73-14.8h4.63a8.07,8.07,0,0,0,4.88-1.25,4.26,4.26,0,0,0,1.68-3.64c0-3.21-2.18-4.82-6.56-4.82h-4.63Z"/><path class="cls-1" d="M150,391.29V364.43h4.17l9.11,22.23h0l9-22.23h4.17v26.86h-2.73V368h-.08L164,391.29h-1.44L152.79,368h-.07v23.33Z"/><path class="cls-1" d="M180.42,391.29,192,364.43h2.66l11.53,26.86h-3l-3-7.06H186.34l-2.92,7.06Zm6.94-9.56H199.2l-5.92-14.27Z"/><path class="cls-1" d="M230.73,397.89v-6.6H210.17V364.43h2.73v24.43h14.65V364.43h2.73v24.43h3v9Z"/><path class="cls-1" d="M238.32,391.29V364.43h2.74V387h.07l14.8-22.61H259v26.86h-2.73V368.45h-.07l-14.8,22.84Z"/><path class="cls-1" d="M288.72,388a14.55,14.55,0,0,1-20,0,14.83,14.83,0,0,1,0-20.22,14.52,14.52,0,0,1,20,0,14.83,14.83,0,0,1,0,20.22Zm-18.09-1.82a11.27,11.27,0,0,0,16.13,0,12.79,12.79,0,0,0,0-16.6,11.22,11.22,0,0,0-16.13,0,12.82,12.82,0,0,0,0,16.6Z"/><path class="cls-1" d="M298.39,391.29V364.43h2.73v11.65h14.65V364.43h2.73v26.86h-2.73V378.58H301.12v12.71Z"/><path class="cls-1" d="M325.64,391.29V364.43h2.73v11.65H343V364.43h2.74v26.86H343V378.58H328.37v12.71Z"/><path class="cls-1" d="M352.88,391.29V364.43h2.73v11.65h4.71a11.57,11.57,0,0,1,7.06,1.95,7.5,7.5,0,0,1,.05,11.33,11.41,11.41,0,0,1-7,1.93Zm2.73-2.35h4.48q7.14,0,7.13-5.2a4.61,4.61,0,0,0-1.84-3.95,8.76,8.76,0,0,0-5.29-1.36h-4.48Zm18.44,2.35V364.43h2.74v26.86Z"/><path class="cls-1" d="M383.92,391.29V364.43h2.73V387h.08l14.8-22.61h3.07v26.86h-2.73V368.45h-.08L387,391.29Zm14.13-30.75a6.2,6.2,0,0,1-7.62,0A5.23,5.23,0,0,1,388.7,357l1.75-.34a3.67,3.67,0,0,0,1.31,2.29,3.78,3.78,0,0,0,2.48.86,3.83,3.83,0,0,0,2.49-.86,3.76,3.76,0,0,0,1.31-2.29l1.74.34A5.23,5.23,0,0,1,398.05,360.54Z"/><path class="cls-1" d="M97.2,436.83V410h6.38v10.93h.11l9.6-10.93h8.12l-11.57,12.37,12.26,14.5h-8.47l-10-12.37h-.07v12.37Z"/><path class="cls-1" d="M141.71,437.55a14.5,14.5,0,0,1-10.47-4,13.6,13.6,0,0,1-4.13-10.3,13.31,13.31,0,0,1,4.11-10.21,16.34,16.34,0,0,1,21,0,13.28,13.28,0,0,1,4.12,10.21,13.63,13.63,0,0,1-4.13,10.3A14.57,14.57,0,0,1,141.71,437.55Zm-5.52-8.27a7.68,7.68,0,0,0,11.06,0,8.49,8.49,0,0,0,2.17-6,8.23,8.23,0,0,0-2.17-5.88,7.75,7.75,0,0,0-11.06,0,8.3,8.3,0,0,0-2.14,5.88A8.56,8.56,0,0,0,136.19,429.28Z"/><path class="cls-1" d="M166.34,436.83V410h9.22l6.11,17.23h.15L187.67,410H197v26.87H190.7l.15-19h-.11l-7,19H179.2l-6.79-19h-.11l.15,19Z"/><path class="cls-1" d="M208.27,436.83V410h6.41v17.68h.16L225.16,410H232v26.87h-6.42V419.56h-.11l-10.25,17.27Z"/><path class="cls-1" d="M248.23,436.83V415.5h-7.59V410h21.67v5.54h-7.59v21.33Z"/><path class="cls-1" d="M271,436.83V410H289v5.5h-11.8v5.05h11.15v5.2H277.22v5.58H289.7v5.54Z"/><path class="cls-1" d="M304.69,436.83V415.5H297.1V410h21.67v5.54h-7.59v21.33Z"/><g id="ИК"><path class="cls-2" d="M295.54,159.89a4.34,4.34,0,0,1,.1-5.06L350,87.77c1.11-1.37.58-2.49-1.19-2.49h-36.3a7.23,7.23,0,0,0-5.14,2.57l-29.22,39a11.26,11.26,0,0,0-1.93,5.77v56.65a11.66,11.66,0,0,0,1.88,5.81l31.66,43.78a7.1,7.1,0,0,0,5.09,2.6h38.48c1.76,0,2.34-1.16,1.28-2.57Z"/><path class="cls-2" d="M71.63,85.44a3.21,3.21,0,0,0-3.21,3.21V238.36a3.22,3.22,0,0,0,3.21,3.21H96.44a7.32,7.32,0,0,0,5.15-2.56l.6-.78a11.15,11.15,0,0,0,1.94-5.77V88.65a3.21,3.21,0,0,0-3.21-3.21Z"/><path class="cls-2" d="M176.36,85.44a7.05,7.05,0,0,0-5.07,2.61l-47.57,66.82a11.84,11.84,0,0,0-1.86,5.82v46c0,1.77.84,2,1.87.6l43.16-60c1-1.43,1.87-1.16,1.87.6v90.45a3.23,3.23,0,0,0,3.21,3.21h29.27a3.22,3.22,0,0,0,3.21-3.21V88.65a3.21,3.21,0,0,0-3.21-3.21Z"/><rect class="cls-1" x="222.58" y="85.44" width="35.56" height="156.13" rx="3.21"/></g><path class="cls-3" d="M398,313.27a1.6,1.6,0,0,0,1.59-1.6V266.52a1.59,1.59,0,0,0-1.59-1.59H379.69a1.6,1.6,0,0,0-1.6,1.59v19.84a5.39,5.39,0,0,1-5.39,5.39H352.87a1.59,1.59,0,0,0-1.59,1.59v18.33a1.6,1.6,0,0,0,1.59,1.6Z"/><path class="cls-4" d="M357.7,317.06H398a5.39,5.39,0,0,0,5.39-5.39V271.35h6.3a3.5,3.5,0,0,1,3.49,3.49v48.52a3.5,3.5,0,0,1-3.49,3.49H361.19a3.5,3.5,0,0,1-3.49-3.49Z"/><path class="cls-3" d="M60.32,313.27a1.6,1.6,0,0,0,1.6-1.6V293.34a1.6,1.6,0,0,0-1.6-1.59H40.49a5.4,5.4,0,0,1-5.39-5.39V266.52a1.59,1.59,0,0,0-1.59-1.59H15.18a1.6,1.6,0,0,0-1.6,1.59v45.15a1.6,1.6,0,0,0,1.6,1.6Z"/><path class="cls-4" d="M55.5,323.36A3.5,3.5,0,0,1,52,326.85H3.49A3.5,3.5,0,0,1,0,323.36V274.84a3.5,3.5,0,0,1,3.49-3.49h6.3v40.32a5.39,5.39,0,0,0,5.39,5.39H55.5Z"/><path class="cls-3" d="M352.87,13.58a1.6,1.6,0,0,0-1.59,1.6V33.51a1.6,1.6,0,0,0,1.59,1.59H372.7a5.39,5.39,0,0,1,5.39,5.39V60.33a1.6,1.6,0,0,0,1.6,1.59H398a1.59,1.59,0,0,0,1.59-1.59V15.18a1.6,1.6,0,0,0-1.59-1.6Z"/><path class="cls-4" d="M357.7,3.49A3.5,3.5,0,0,1,361.19,0h48.52a3.5,3.5,0,0,1,3.49,3.49V52a3.5,3.5,0,0,1-3.49,3.49h-6.3V15.18A5.39,5.39,0,0,0,398,9.79H357.7Z"/><path class="cls-3" d="M15.18,13.58a1.6,1.6,0,0,0-1.6,1.6V60.33a1.6,1.6,0,0,0,1.6,1.59H33.51a1.59,1.59,0,0,0,1.59-1.59V40.49a5.39,5.39,0,0,1,5.39-5.39H60.32a1.6,1.6,0,0,0,1.6-1.59V15.18a1.6,1.6,0,0,0-1.6-1.6Z"/><path class="cls-4" d="M55.5,9.79H15.18a5.39,5.39,0,0,0-5.39,5.39V55.5H3.49A3.5,3.5,0,0,1,0,52V3.49A3.5,3.5,0,0,1,3.49,0H52A3.5,3.5,0,0,1,55.5,3.49Z"/></g></g></svg>