<svg xmlns="http://www.w3.org/2000/svg" viewBox="0 0 237.23 410.26"><defs><style>.cls-1{fill:#18b1ab;}</style></defs><title>Ресурс 17</title><g id="Слой_2" data-name="Слой 2"><g id="Задание_5" data-name="Задание 5"><path class="cls-1" d="M166.69,160.64c5.31-2.44,9.69-4.67,14.23-6.49,4.18-1.69,8.26-1,11.05,2.69,2.64,3.49.38,6.86-1.94,9.29-3.93,4.12-6.24,7.59.28,11.29a2.82,2.82,0,0,1,.78,2.58c-2.85,8-3.41,14.58,7,17.95,2.48.8-.73,4.84-2.42,7-5.56,7.07-13.84,11.89-17.78,21.73,7.18-1.21,10.86-6.83,16.24-9.27,3.11-1.41,6.22-4.08,9.6-1.73,3.57,2.48,2.7,5.91.56,9.13-.91,1.37-1.25,2.49.38,4,7,6.36,1.93,7.41-3.67,7.64-14.86.59-14.89.53-20.65,16,8.84-.26,13.24-9.29,21.12-10.14,2.77,3.36-.23,6.73.42,9.95,3.1,1.46,7.77-1.51,9.34,2.79,1.7,4.66-3.7,5.77-6,9.38,5.78.28,10.89,4.1,12.63,7.59,3.29,6.57,4.9,14,8.63,20.7,1.48,2.68-4.77,5.9-8.55,7.33-4.66,1.76-9.54,2.92-15.41,4.66,4.91,3.25,9.65,2.14,13.88,3.14s11.56.34,6.86,8.81c-1.42,2.54,1.46,2.91,2.82,3.8,2.87,1.89,6.07,3.35,8.77,5.45,3.77,2.93,2.76,5.7-1.59,6.18-5.44.59-11,.14-17.08.14,2,5.41,10.85,7.21,6.62,12.72-3.51,4.55-9.24-.11-13.95-1.2-4.21-1-7.84-3.93-14.53-3.77,6.94,5.64,12.65,10.15,18.21,14.83a39,39,0,0,1,5.88,6c1.33,1.75,2.11,4.13.26,6-1.67,1.72-3.54.16-5.16-.51-10.58-4.37-21.38-7.22-32.94-5.68-.67,2.44,1.21,2.56,2.48,3.12,9.64,4.29,8.32,5,2.91,13.17-6.93,10.44-8.71,2.4-11.53-1.7-4-5.82-9.21-8.32-16-7.65-1.77.18-4.05-1-4.25,3-.46,8.83-5,5.58-9.16,2.4-1.87-1.44-3-5.29-5.66-3.89-2.38,1.22-2.71,4.79-2.74,7.61-.11,8.17-.36,16.35,0,24.49.53,10.95-7.2,8.23-13.4,8.94-7.59.87-7.79-3.26-7.65-9a177.25,177.25,0,0,0-.88-21.61c-.42-4.29-1.13-9.33-6.31-10.61s-7.86,3.06-10.81,6.18-5.46,6.95-8.62,10c-2.69,2.56-6,4.43-6.47-1.92,0-.86.25-2.47.13-2.49-12.16-2.53-2.05-7.64-1.17-12-9.55-2.52-18.47-2.73-26.57,4A29.69,29.69,0,0,1,47.64,377c-2,.86-4.5,1-6.22-.7-2.23-2.25.2-3.85,1.19-5.67,1.24-2.3,5.38-3.71,3.43-6.9s-5.91-3.15-9.41-2.53a77.86,77.86,0,0,0-8.25,2c-16.37,4.71-16.83,4.59-26.89-8-3.49-4.36-.68-9.74,6.7-10.85,6-.9,12.26-.18,18.76-.18-1.33-4.72-8.52-4.54-6.71-8.71,1.56-3.62,6.77-1.69,10.37-1.87,6.55-.32,13.32.79,19.22-3.13,2.6-1.73,5.69-3.84,3.52-7.53-2.28-3.87-5.25-1.71-8.1-.2-3.7,2-6.35,6.23-12,5.51l2.62-9.84C28.61,322.88,23,328,15,325.06c-3.6-1.32-7.72-1.4-8.45-6-.78-4.9,2.56-7.44,6.58-9.09,2.82-1.15,5.75-2,8.6-3-.56-3.82-5.77-1.67-6-5.76,2.12-3.16,5.93-2.06,9-2.82,4.55-1.12,9.27-1.75,13.65-3.33,3.16-1.15,7.25-3.72,5.31-7.45-1.65-3.18-4.79.73-7.3,1.32-1.22.29-2.35.95-3.57,1.21-4.9,1.05-10.74,1.07-12.2-4-1.55-5.42,4.77-6.84,8.59-7.85,6.32-1.67,13.06-1.71,19.48-3.13,3.54-.78,9.93-.51,9.1-5.4-.68-4-6.45-1.89-10-1.47-4,.49-7.89,2.13-12.08,1.46-2.22-.35-4.59-.74-5.4-3.07s1.21-3.23,3-3.89c5-1.82-2.23-8.46,3.82-9.71,4.36-.9,7.17,4,11.43,3.45a15.28,15.28,0,0,0,9.14-4.5c2-2,4.45-4.24,2.89-7.28s-4.48-1-6.81-1c-3.77,0-7.54.45-11.28.24-3-.16-7,0-7.33-4.15-.31-3.51,2.54-6.07,5.68-6.6,6.17-1,10-2.69,6.46-10a5.33,5.33,0,0,1,1.87-6.76c2.29-1.35,4.15,1,5.5,2.51,5.75,6.46,12.06,7.11,21.89.73-11.49.5-17.61-4.54-22.43-11.56-1.12-1.63-4.41-2.22-2.83-5.07,1.32-2.38,3.85-3.07,6.5-3.11,4.24-.08,7.84,2,11.66,3.42s8.15,2.25,9.88-2.09c1.91-4.8-3.27-5.2-6.12-6.45-4-1.75-8.37-2.74-12.39-4.47-4.44-1.91-4.06-4.41.09-6.25,2.69-1.2,5.79-1,5.21-5.81-.47-3.93,3.28-2.72,5.58-2.26,3,.62,6.06,2.16,9.16.57,2.7-1.38,6.54-2.94,5.31-6.49-1.14-3.29-4.75-1.71-7.47-1.08-4.56,1.06-10.9,6.26-13.24,0s6-7.12,10.14-9.87a40,40,0,0,1,4-2.09c-1.23-3.55-5.84-1.42-6.38-5,14-11.34,14-11.34,6.23-16.62,2.46-4.19,7.55-3.87,10.84-6.32,4.23-3.16,9.34-6.46,0-9.71-3.27-1.14-3.33-3.57-1.93-6,1.52-2.69,3.48-5.14,5.49-8-.38-2.41-3.27-2-4.68-3.4-4-3.89-2.89-10.4,2-11.78,8.74-2.47,10-5.94,4.78-13.42-.71-1-1.61-1.92-2.4-2.9-1.63-2-5.16-3.11-3.05-6.87,1.74-3.09,4.56-3.24,7.36-2.56,9.15,2.23,9.25-1.53,7-8.88-1-3.42-8.62-11.92,4.32-10.63.26,0,1-1.23.89-1.37-5-6.07,6.85-8.58,3-14.34,9.83-6.37,2.27-15,3.19-22.53.28-2.24-2.37-10.09,7.08-5.19,7,3.64,8.34,1,5.12,10a30,30,0,0,0-1.92,7.24c-.34,4-1.34,9,2,11.43s4.77-2.8,7.34-4.18c2.41-1.3,5.07-2,6.93.17s-.38,4.05-1.59,5.78c-2.28,3.24-5.71,6-4.18,11.23,2.1-1,3.94-2.13,5.94-2.58s5.06-3.66,6.13-.06c.87,2.92,5.52,5.47,1.29,9.79-2.92,3-13.94,10,2.62,8.69,4.21-.34,2.15,4.36.36,6.77C152,68,151.46,70,154,71.37c2.3,1.24,3.11-1.2,4.36-2.44s1.5-4.93,4.53-3.32c2.46,1.31,2.66,4.13,2.08,6.7-.92,4.12-3.76,7.17-6.13,10.48-2.25,3.14-5.86,5.59-5.86,10.88,5.75-1.46,7.22-6.42,10.35-9.56,1.37-1.39,2.38-4.33,5.13-2.49,1.68,1.13,1.3,3.24,1.43,5.16.56,8.14-2.83,14.53-7.91,20.54-3.08,3.63-4.8,8.06-3.39,13.25,4.07.83,4.79-3.39,7.34-4.69,1.67-.85,3.34-2.15,5.17-.76s1.4,3.49.51,5.13c-1.77,3.3-3.86,6.42-5.92,9.78,2.68,3.09,6.57-3.24,8.76.77s.43,8-.74,11.89C172,148.53,167.59,153.43,166.69,160.64Zm42.54,116.58a28.32,28.32,0,0,1-14.45,1c-2.07-.36-5.24-.78-5.35,2-.13,3,2.74,5.11,5.65,5.1C200.27,285.28,204.33,282.44,209.23,277.22Z"/></g></g></svg>