<svg xmlns="http://www.w3.org/2000/svg" viewBox="0 0 245.18 243.6"><defs><style>.cls-1{fill:#15b2ab;}</style></defs><title>Ресурс 18</title><g id="Слой_2" data-name="Слой 2"><g id="Задание_4" data-name="Задание 4"><path class="cls-1" d="M183.17,166.28c3,6.58,1.34,9.51-5.89,10.46-2.39.31-4.8.44-7.2.65l-6.56.58c3.59,10.36,4.54,11.07,14.42,10.62,5.93-.27,11.86-.71,17.79-1,3.69-.16,6.92.87,7.15,5.18s-3.1,5.17-6.36,5.5c-6.58.67-13.19,1.08-19.84,1.6.41,3.86,2.52,4.6,5.51,4.38,5.74-.41,11.49-.73,17.24-1,3.36-.16,6.64.35,7.07,4.5.46,4.54-2.9,5.53-6.46,5.89q-5.82.57-11.66.86c-2.69.13-3.3,1.07-1.83,3.41a17.25,17.25,0,0,1,1.94,4,4.59,4.59,0,0,1-2.13,5.74,4.45,4.45,0,0,1-6.06-.75c-1.63-1.75-2.92-3.8-4.72-6.18-2.76,4.28-5.37,8.28-7.92,12.31-2,3.19-4.77,5.27-8.28,3-3.32-2.15-2.31-5.54-.61-8.44,2.9-5,5.8-10,9-14.74,1.83-2.76,1.21-4.7-1.38-7.13L157.92,219c-.79,1.25-1.51,2.57-2.4,3.75-2.05,2.71-4.55,4.74-8,2.65s-2.8-5.38-1.14-8.28c2.87-5,6-9.81,9-14.71,5.49-8.94,5.4-9.76-2.22-18.31-2.55,4-5,7.86-7.52,11.72-2,3-4.52,5.62-8.2,3.44s-2.61-5.73-.78-8.81c2.74-4.62,5.5-9.26,8.49-13.73,1.79-2.68,2.31-5-.67-7.5-3.44,3.31-5.27,7.78-8,11.61-3.39,4.79-5.37,5.12-9.88,1.36-3.54-2.94-7-6-10.54-9-2.33,3.17-1.7,5.35.87,7.47,3.85,3.2,7.48,6.67,11.27,10,3,2.58,5.91,5.67,3,9.42-3.21,4.11-6.59,1.1-9.5-1.32-2.71-2.26-5.41-4.53-8.06-6.87-1.89-1.67-2.49-1.08-3.27,1.16-2.92,8.42-2.95,8.73,3.74,14.67,4.44,3.95,9,7.82,13.35,11.82,2.64,2.4,4.69,5.26,1.67,8.61s-6,1.87-8.79-.55c-3.79-3.28-7.54-6.61-11.43-9.77-1.12-.9-2.24-3.43-3.9-1.77s-1.35,4,.78,5.81c3.55,3,7,6.1,10.46,9.18,1.38,1.24,2.8,2.45,4,3.82,2,2.17,2.52,4.72.47,7s-4.65,2.3-7,.48c-4.24-3.27-8.35-6.71-12.49-10.06-1.67,1.58-1.53,3.6-2.23,5.29-1.18,2.85-2.94,4.87-6.31,4-3.56-.88-4.91-3.71-3.87-6.85,2.11-6.36-1.1-5.76-5.29-4.63-3,.81-6.13,1.49-9.23,2s-6.17.13-7.06-3.58,1.6-5.5,4.7-6.34c5.73-1.54,11.52-2.86,17.28-4.3,1.24-.3,2.63-.25,3.54-1.39s1.5-2.4,1-3.6c-.58-1.37-1.91-.46-2.91-.24-4.72,1-9.44,2-14.14,3.07-4.12.93-8.88,2.08-10.14-3.37-1.32-5.7,3.94-6.22,7.81-7.21,6.65-1.71,13.35-3.19,20-4.88,2.65-.68,7-9.83,5.77-12-.7-1.23-2-.71-3-.5-4.18.85-8.32,1.89-12.52,2.64-3.59.63-6.38-.62-7-4.49-.63-3.66,2.09-4.79,4.94-5.5,5.75-1.44,11.54-2.79,17.3-4.21,1.41-.35,3.11-.42,3.87-1.86a4.54,4.54,0,0,0,.47-3.16c-.31-.94-1.62-.56-2.5-.37-3.63.76-7.23,1.7-10.88,2.33-6.11,1.07-7.73-.25-8.26-6.34-.38-4.43-.79-8.85-1.19-13.34-3.9.23-4.54,2.57-4.33,5.74q.6,8.9.92,17.8c.11,2.88-.19,5.83-3.93,6.27-3.95.46-5.78-2-6.39-5.46-.88-5.07-.22-10.34-1.86-15.62-1.32.65-2.43,1.3-3.61,1.76-5.58,2.17-7.75,5.66-6.65,12s.7,12.95.91,19.44c.12,3.38-1.12,6-4.83,6.19S46.27,199.31,46,196c-.53-5.54-.77-11.11-1.38-16.64-.14-1.27,1.05-4-1.87-3.58a3.5,3.5,0,0,0-3,4.06c.37,4.81.62,9.62.86,14.44a44.65,44.65,0,0,1,0,6.12c-.27,2.85-1.58,5-4.81,5.08s-4.81-2-5.17-4.79c-.68-5.33-1-10.7-1.54-16.14-4.36.06-9,7-12.7.38-3.26-5.79,3.33-7.1,6.43-10.22-3.47-3.41-7.87-5.37-11.76-8-3-2.05-5.46-4.55-3.2-8.24,2.37-3.86,5.78-2.32,8.79-.56,4.8,2.81,9.6,5.65,14.26,8.68,2.79,1.81,5,1.8,7.26-1.33-5.24-3.31-10.36-6.63-15.56-9.81-3.45-2.11-6.54-4.83-4-8.92s6.5-2.22,9.82-.27c4.31,2.54,8.56,5.2,12.83,7.82C50.86,160,51,160,60.14,152.2c-4-2.54-7.91-5-11.78-7.49-3-2-5.62-4.53-3.25-8.2s5.81-2.41,8.88-.6c4.8,2.82,9.64,5.6,14.26,8.69,2.74,1.84,4.73,1.47,7-1.42-3.89-2.48-7.73-4.91-11.55-7.36-5.62-3.6-5.86-5.24-1.48-10.46,2-2.42,4.27-4.67,6.16-7.19.78-1,3.47-2.1,1.28-3.83a3.52,3.52,0,0,0-5,.72c-3.31,3.76-6.71,7.44-10.09,11.14a33,33,0,0,1-3.47,3.61c-2.37,1.91-5,2.73-7.49.25-2.21-2.25-1.61-4.85.15-7.06,3.21-4,6.6-8,10.49-12.63-3.37-.87-6.2-1.43-8.91-2.35s-4.44-.12-6.24,2c-4.7,5.5-9.63,10.82-14.48,16.19-2.56,2.83-5.51,5-9,1.81-3.35-3-1.47-6,.85-8.75,4.1-4.78,8.26-9.51,12.49-14.37-2.66-2.59-4.74-2.14-6.93.4-3.76,4.36-7.66,8.6-11.54,12.84-2.47,2.69-5.54,4.52-8.71,1.71-3.33-3-1.36-6,1-8.71s4.53-5.42,7-8c2-2.1,2.73-3.59-1-4.24a17.3,17.3,0,0,1-3.16-1.07C2.6,96.71,1.8,94.46,2.4,91.57s2.9-3.65,5.49-3.52c2,.1,4,.49,6.47.81C14.54,84.33,12.73,80.24,12,76c-.41-2.39-.91-4.79.43-7a4.36,4.36,0,0,1,4.28-2.07,5,5,0,0,1,4.75,4c1.55,5.72,2.92,11.5,4.4,17.25a12.66,12.66,0,0,0,1.31,3.61A3.31,3.31,0,0,0,30.68,93c2-.45.86-2.14.64-3.19C30.2,84.34,29,78.92,27.68,73.5,26.85,70,27.53,67,31.35,66s5.93,1.3,6.81,4.83c1.74,7,3.41,14,5.16,21.07,1,4.06,8,8.32,11.9,7.4,2.17-.51,1.11-2,.9-3.08-.74-3.82-1.67-7.61-2.38-11.44-.58-3.1-.49-6.3,3.24-7.24s5.91,1.38,6.8,4.87c1.47,5.75,3,11.48,4.21,17.29.57,2.8,2.41,4.24,4.55,3.73,2.73-.65.66-3,.42-4.55-.49-3.11-1.38-6.15-2-9.25-1-5.25.52-7.27,5.81-7.74,3.33-.3,6.7-.22,10-.72,1.3-.2,4,.91,3.78-1.77-.17-2.18-1.87-3.37-4.41-3.14-4.44.41-8.89.6-13.34.85-1.67.09-3.34.06-5,.1-3.49.08-6.57-.72-6.68-4.89C61,68.67,63.63,67.29,67,67c4.07-.32,8.13-.73,12.21-1,2.25-.12,2.94-.66,1.91-3-3-7-4.66-8.18-12.47-7.89-6.31.23-12.6.72-18.9,1-3.63.18-7-.51-7.21-5s3.22-5.41,6.78-5.74c3.33-.3,6.68-.39,10-.68,3.12-.28,6.22-.68,9.36-1-.45-3.54-2.34-4.49-5.47-4.27-6.1.41-12.22.55-18.34.83-3.55.17-6-1.53-6.14-5s2.41-4.79,5.51-5.09c4.06-.4,8.12-.8,12.2-1,2.91-.17,3.64-1.15,2-3.75-1.07-1.72-2.13-3.57-1.92-5.7.22-2.34,1.81-3.55,4-4.11,2.87-.75,4.8.83,5.92,3,2.58,5.08,4.4,4,6.58-.29A75.67,75.67,0,0,1,78.35,10c1.88-2.72,4.56-4.28,7.63-2.4s2.78,5,1.12,7.84c-3,5.12-6,10.26-9.29,15.2-1.89,2.83-2,5,1.26,7.32C82.45,32.58,85.75,27.26,89.15,22c2-3.08,4.38-6.19,8.51-3.74s2.7,6.06.82,9.25C94.81,33.75,91,39.88,87.23,46.08c-1.7,2.84,1,11.7,3.94,13.06A1.26,1.26,0,0,0,93,58.6c.51-.78,1.05-1.53,1.55-2.31,1.9-3,3.85-5.91,5.68-8.93s4.69-4.82,7.4-3.24c3.15,1.84,4.43,1.66,6.85-1s5.47-1,7.93,1c3.68,3.09,7.38,6.16,11.1,9.27,5-9.14,4.65-11.32-2.75-17.83-4.46-3.92-8.92-7.84-13.31-11.84-2.44-2.23-3.64-5-1.26-7.83,2.56-3.06,5.63-2.39,8.36-.13,5.14,4.24,10.16,8.62,15.3,13,2.45-2.87,1.92-4.92-.69-7.1-4.55-3.81-8.92-7.85-13.28-11.88-2.55-2.36-4.08-5.14-1.17-8.18,2.62-2.74,5.44-1.62,7.93.41,3,2.47,6,5,8.8,7.68s3.89,1.65,4.55-1.48c.12-.54.27-1.08.43-1.61,1-3.27,2.92-5.21,6.54-4.4s4.44,3.61,3.6,6.47c-1.91,6.56,1.48,6,5.75,4.75,2.5-.69,5-1.28,7.59-1.75,3.49-.64,7.1-.72,8,3.66.84,4-2.16,5.54-5.44,6.38-5.57,1.42-11.12,2.93-16.75,4.07-3.2.65-4.31,2.32-4,6,5.33-1.22,10.5-2.41,15.69-3.58a34.53,34.53,0,0,1,4.91-.93c3.26-.22,6,.68,6.64,4.38.56,3.39-1.5,5.21-4.49,6-6.83,1.74-13.69,3.38-20.54,5-5.35,1.28-9.25,6.75-8.63,12,.27,2.3,1.76,1.45,2.85,1.23,4-.78,8-1.79,12-2.53,3.75-.69,6.88.39,7.62,4.5s-2.62,4.89-5.48,5.63c-5.39,1.4-10.85,2.52-16.25,3.85a8.88,8.88,0,0,0-4,1.69,4.15,4.15,0,0,0-.92,3.56c.41,1.29,1.93.42,2.93.23,4-.77,8-1.7,12-2.46,4.15-.79,6.4,1,6.73,5.21.37,4.79.74,9.58,1.12,14.46,4-.09,4.85-2.06,4.59-5.32-.48-6.11-.69-12.23-1.05-18.34-.18-2.88.43-5.37,3.68-5.88,3.48-.54,5.91,1.21,6.45,4.62a123.09,123.09,0,0,1,1.15,12.73c.15,2.92.51,3.83,3.85,2.38,5.95-2.6,8.29-6.38,7.3-12.9-.87-5.66-.84-11.46-1.14-17.2-.19-3.76.29-7.63,4.91-7.94,5-.34,5.72,3.77,6,7.64.5,6.08.92,12.15,1.38,18.28,3.73-.25,4.68-2.19,4.49-5.27-.34-5.74-.53-11.5-.75-17.25-.13-3.39.43-6.73,4.51-7.06,4.43-.36,5.41,3.17,5.87,6.64.6,4.57,0,9.27,1.45,13.91,4.14-.48,8.53-6.6,12.15-.39s-4,7-6.49,10.77c4.19,2.69,8.4,5.33,12.53,8.07,2.82,1.87,5.15,4.26,2.91,7.8s-5.38,2.66-8.32,1c-4.82-2.79-9.54-5.75-14.34-8.57a13.39,13.39,0,0,0-4-1.77,3.2,3.2,0,0,0-3.26,1.75c-.61,1.26.89,1.82,1.78,2.38,4.39,2.78,8.84,5.46,13.22,8.26,3.25,2.08,6.65,4.52,3.87,8.88-2.53,4-6.14,2.36-9.31.51-4.33-2.52-8.6-5.15-12.83-7.82-9.78-6.18-9.83-6.2-19.44,1.6,4.15,2.66,8.2,5.22,12.21,7.84,2.76,1.8,5.51,4,3.49,7.63-2.12,3.84-5.61,3-8.73,1.27-5-2.83-9.87-5.9-14.82-8.84-3.39-2-3.4-2-7.29,1.11,4,2.55,7.93,5,11.77,7.52,5.19,3.46,5.41,5.27,1.33,10.2-2.71,3.28-5.49,6.52-8.22,9.79-.09.11-.05.34-.09.76,2.69,1.76,4.87,1.3,7-1.26,3.22-3.84,6.61-7.54,10-11.21,2.53-2.73,5.35-6.27,9.31-2.93s1.08,6.66-1.38,9.58c-2.15,2.55-4.29,5.12-6.52,7.61-1.8,2-1.43,2.79,1.2,3.68,5.92,2,10.7,2.08,14.77-3.9,3.31-4.87,7.74-9,11.74-13.37,2.46-2.7,5.48-4.51,8.68-1.58s1.62,6.11-.73,8.86c-4.08,4.79-8.23,9.53-12.58,14.56,2.85,2.05,5,2.07,7.2-.59,3.59-4.26,7.34-8.39,11.15-12.44,2.43-2.57,5.51-4.59,8.75-1.84,3.47,2.94,1.3,6-1,8.69-2.85,3.4-5.79,6.72-9,10.4,1.79,1.53,3.79,1.74,5.63,2.35,3,1,4.72,3,3.94,6.34-.73,3.08-3.08,3.86-6,3.82-6.64-.09-6.62-.07-5.12,6.48a55.83,55.83,0,0,1,1.34,7.1c.33,3.35.77,7.21-3.86,7.89-4,.59-5.34-2.63-6.16-5.83-1.25-4.85-2.38-9.73-3.57-14.6-.31-1.26-.65-2.51-1-3.77a3.29,3.29,0,0,0-4-2.29c-2.53.38-.89,2.37-.67,3.49,1,5.09,2.36,10.11,3.36,15.21.71,3.62.87,7.46-3.88,8.39-4.34.86-5.82-2.42-6.68-5.85-1.74-7-3.32-14.08-5.07-21.1-.79-3.18-9.18-7.53-12.12-6.46-1.56.58-1,1.8-.79,2.76.74,3.63,1.65,7.23,2.4,10.86,1.44,7-1.27,9.79-8.21,8.56-2.69-7.12-3.9-14.63-5.73-22-.76-3-2.17-4.83-6-4.12,1,4.77,2.1,9.25,3,13.75,1.1,5.29-.29,7.25-5.58,7.77-4.77.47-9.55.77-14.42,1.15.48,3.7,2.4,4.59,5.47,4.4C167.63,166.9,175.4,166.63,183.17,166.28ZM111.82,48.4C107.75,55,104,61.41,100,67.62c-1.83,2.83-1.94,5,1.34,7.18,2.67-4.26,5.28-8.48,8-12.67,2.25-3.53,5.14-4.05,8.4-1.41s6.16,5.33,9.33,7.89c.83.67,1.71,2.56,3.1.92a3.41,3.41,0,0,0,.57-3.66A11.59,11.59,0,0,0,128.09,63C122.75,58.2,117.38,53.4,111.82,48.4ZM105,153.5c-1.66-1.69,2.46-6.69-3-6.68-7.29,0-9.75,2-9,6.91.33,2.34-2.32,6.62,2.65,6.94C101.71,161.08,105.13,158.35,105,153.5ZM84,134.94c1.24-.06,7.74-7.18,7.63-8.36s-8.16-6.37-9.5-6.21c-1.08.12-7.79,7.48-7.7,8.45C74.47,129.6,82.91,135,84,134.94Zm52,25.49c0-1-7.22-7.8-8.27-7.85s-6.53,7.8-6.51,9.2c0,1.12,7.06,7.8,8.23,7.82C130.32,169.61,136,161.67,136,160.43ZM124.15,82.14c.06-1.07-6.73-7.82-8-8-1.06-.13-6.52,7.29-6.58,9,0,1.09,6.72,7.84,8,8C118.5,91.22,124.08,83.61,124.15,82.14ZM91.5,104.22c1.49-1.52,6.25,2.38,6-3.21-.39-7.52-1.88-9.49-7.28-8.76-2.21.3-6.61-2-6.41,3.14C84.06,102.87,85.58,104.5,91.5,104.22Zm71.21,19c1.13,0,7.87-6.91,7.92-8.1,0-1-7.76-6.51-9.22-6.5-.95,0-7.91,7.17-8,8.19S161.11,123.27,162.71,123.26Zm-22.13-32c1.5,1.37-2.4,5.83,2.76,5.71,7-.16,9.93-2.32,9.2-6.85-.4-2.47,1.9-7.08-3.26-7C142.2,83.19,140.29,85.19,140.58,91.29Zm13.08,48.29c-1.57,1.35-6.29-2.25-5.94,3.19.5,7.67,2,9.44,7.77,8.76,2.12-.25,6.24,1.92,6.13-2.93C161.46,141.5,159.48,139.31,153.66,139.58Z"/></g></g></svg>