<svg xmlns="http://www.w3.org/2000/svg" viewBox="0 0 172.55 362.53"><defs><style>.cls-1{fill:#15b2ab;}.cls-2{fill:#e04b4e;}</style></defs><title>Ресурс 10</title><g id="Слой_2" data-name="Слой 2"><g id="Задание_1" data-name="Задание 1"><path class="cls-1" d="M80.94,152.49c15.48-6.32,31-12.5,46.42-19,4.92-2.08,6.59-1.29,8.61,4.06,9.82,26.07,20.67,51.76,30.54,77.81,8.43,22.29,8.6,44.55-3.14,66a112.66,112.66,0,0,1-22.68,29.1c-26,23.91-56.91,39.11-90.08,50a42.87,42.87,0,0,1-25.83.09c-9.28-2.78-14-9.18-13.76-18.87.32-12.33,5.37-23,12.08-33,5.14-7.63,10.47-15.15,16-22.49,14.68-19.39,16.63-40.58,10-63.39a188.13,188.13,0,0,0-17.77-42.06c-3.45-5.95-1.54-7.58,3.8-9.65C50.5,165.18,65.7,158.77,81,152.54Z"/><path class="cls-2" d="M132,120.58c-3.63-8.19-6.84-16.58-10.23-24.89-3-7.41-4.82-15.69-9.38-22s-3.83-12.43-3.6-19c.43-12.36.56-24.71-1.52-37-.9-5.32-2.15-10.54-5.88-14.62S94.2-1.37,90.7,3.63a23.39,23.39,0,0,0-3.79,8.92,45.35,45.35,0,0,0,6.92,1.55,40.21,40.21,0,0,1,2.33-8C103.87,22,102.07,37,101.42,51.9c-1.49-4.3-3.23-8.58-4.72-13-2.23,1-4.67,1.23-6.78,2.16a136.49,136.49,0,0,0,8.44,21.47c2.72,5.62,2.21,7.95-4,10.41C65,84.52,35.91,96.73,6.66,108.49c-6.24,2.5-8.19,5.83-5.45,12.27q9.69,22.76,18.72,45.78c2.32,5.94,5.44,6.89,11.17,4.43,15.83-6.79,31.85-13.11,47.79-19.62,16.17-6.61,32.25-13.43,48.55-19.69C133.56,129.32,134.47,126.17,132,120.58ZM82.4,129.23c-4.11-1.54-5.94-8.8-12.21-5.88,1.14,4.66,1.14,4.66,8.69,10.06-3.17,3.23-8.1,2.74-12.07,5.64-1.1-4.76,5.23-9.72-.68-14.09-5.83,2.35-4.16,7.78-3.69,13.46-4.8-2.69-8.44-5.15-11.6-8.8,4.12-2.25,10.85-.52,11.64-7.57-5.38-3.83-9,1.66-13.87,3.33.66-4.79,1.24-9,1.94-14.08,4.43,2.72,6.56,9.24,12.81,6.47.67-6.78-6.18-6.87-9.93-10.43l13-5.32c.48,4.94-4.74,9.68.61,13.87,6.87-2,3.07-8.25,4.55-13.06l11.68,9c-6.08,1.26-11.56,1-12.73,7.12,5.24,3.39,9-.64,13.3-3.15C84.53,120.58,83.3,124.68,82.4,129.23Z"/></g></g></svg>