<svg xmlns="http://www.w3.org/2000/svg" viewBox="0 0 3177.5 438.77"><defs><style>.cls-1,.cls-2{fill:#15b2ab;}.cls-2{stroke:#15b2ab;stroke-miterlimit:10;stroke-width:9px;}</style></defs><title>Ресурс 1</title><g id="Слой_2" data-name="Слой 2"><g id="Адвент"><rect class="cls-1" y="418.03" width="2333" height="15" rx="7.5"/><path class="cls-2" d="M2699.7,12.08c13.42,21.68,49.62,77.72,95.74,129.84a3.71,3.71,0,0,1,.84,3.41,3.57,3.57,0,0,1-2.26,2.5c-9.87,3.56-24.58,8.54-38.61,12a11.52,11.52,0,0,0-4.25,20.35c16.58,12.6,41.61,30.63,66.71,45a3.52,3.52,0,0,1,1.77,3.62,3.59,3.59,0,0,1-2.73,3.08c-13.38,3.43-31.41,8-45.73,11.61a11.53,11.53,0,0,0-3.49,20.86c18,11.71,52.93,33.86,84.17,50.79a3.65,3.65,0,0,1-1,6.78c-19.27,4.26-54.44,12.05-73.55,16.45a11.42,11.42,0,0,0-8.49,8,11.26,11.26,0,0,0,2.73,11.18c22.38,23.07,106.28,76.74,401.4,76.74v-7.86c-292.12,0-374.07-52-395.75-74.36a3.49,3.49,0,0,1-.84-3.48,3.65,3.65,0,0,1,2.71-2.56c19.08-4.39,54.23-12.18,73.49-16.43a11.52,11.52,0,0,0,3-21.38c-31-16.79-65.7-38.82-83.62-50.46a3.67,3.67,0,0,1,1.1-6.64c14.34-3.58,32.39-8.19,45.79-11.62a11.51,11.51,0,0,0,8.57-9.65,11.3,11.3,0,0,0-5.67-11.5c-26-14.86-52.43-34.19-65.85-44.39a3.52,3.52,0,0,1-1.36-3.61,3.65,3.65,0,0,1,2.75-2.84c14.35-3.56,29.33-8.64,39.38-12.27a11.43,11.43,0,0,0,7.21-7.94,11.61,11.61,0,0,0-2.57-10.57c-41.7-47.12-78.83-105.18-95.83-127.18a15,15,0,0,0-9-5c-2.83-.33-7.12,1.86-9,4-36,41-79.17,107.28-98.55,129.34a11.52,11.52,0,0,0,6.3,18.88l42.69,9a3.68,3.68,0,0,1,1.43,6.56c-16.87,12.62-46.62,28.23-68.62,39.09a11.54,11.54,0,0,0,3,21.67l50.42,9.64a3.55,3.55,0,0,1,2.83,2.58,3.73,3.73,0,0,1-1.12,3.82c-28.26,25.56-63.91,45.21-88.84,57.19a11.53,11.53,0,0,0,3.25,21.78l67.17,10.48a3.56,3.56,0,0,1,2.93,2.51,3.7,3.7,0,0,1-1,3.85c-53.18,50.8-142.33,76.55-265,76.55H1501v7.86h843.37c124.75,0,215.73-26.48,270.42-78.72a11.55,11.55,0,0,0,3.07-11.89,11.43,11.43,0,0,0-9.21-7.93l-67.18-10.48a3.67,3.67,0,0,1-1-6.93c25.39-12.2,61.74-32.25,90.7-58.44a11.55,11.55,0,0,0-5.51-20l-50.42-9.63a3.68,3.68,0,0,1-1-6.9c22.28-11,52.49-26.86,69.84-39.84a11.54,11.54,0,0,0-4.52-20.55l-42.69-9a3.64,3.64,0,0,1-2.74-2.44,3.58,3.58,0,0,1,.72-3.56c20.31-23.12,70.58-82.14,98.62-130.91Z"/></g></g></svg>