<svg xmlns="http://www.w3.org/2000/svg" viewBox="0 0 3000 2000"><defs><style>.cls-1{fill:#010204;}.cls-2{fill:#e04b4e;}</style></defs><title>Фон</title><g id="Задание_2" data-name="Задание 2"><rect class="cls-1" x="-47.26" y="-31" width="3094.26" height="2062.08"/><polygon class="cls-2" points="199.92 213.6 220.6 257.16 263.08 234.33 228.04 267.46 262.87 300.8 220.54 277.71 199.6 321.15 208.47 273.75 160.69 267.25 208.51 261.05 199.92 213.6"/><polygon class="cls-2" points="494.36 1103.85 519.61 1133.76 548.22 1107.05 527.58 1140.3 561.82 1159.26 523.82 1149.9 516.37 1188.33 513.52 1149.29 474.68 1154.09 510.93 1139.32 494.36 1103.85"/><polygon class="cls-2" points="2824.22 1737.36 2849.47 1767.27 2878.08 1740.56 2857.44 1773.81 2891.68 1792.77 2853.68 1783.41 2846.24 1821.84 2843.39 1782.8 2804.54 1787.6 2840.79 1772.83 2824.22 1737.36"/><polygon class="cls-2" points="2734.93 662.5 2739.16 694.38 2770.78 688.55 2741.78 702.43 2757.08 730.71 2734.93 707.41 2712.76 730.71 2728.07 702.43 2699.07 688.55 2730.69 694.38 2734.93 662.5"/><polygon class="cls-2" points="874.17 245.11 860.03 264.53 880.14 277.69 857.3 270.24 851 293.42 851.03 269.4 827.03 270.57 849.89 263.17 841.36 240.72 855.45 260.17 874.17 245.11"/><polygon class="cls-2" points="2403.05 440.64 2369.24 455.11 2385.38 488.16 2361.17 460.47 2334.73 486.04 2353.58 454.46 2321.09 437.21 2356.95 445.38 2363.31 409.15 2366.63 445.78 2403.05 440.64"/><polygon class="cls-2" points="954.8 676.92 948.25 700.03 971.66 705.42 947.66 706.33 949.77 730.26 941.48 707.71 919.38 717.12 938.26 702.27 922.49 684.15 942.44 697.52 954.8 676.92"/><polygon class="cls-2" points="445.32 757.57 439.89 780.97 463.53 785.22 439.6 787.29 442.86 811.09 433.5 788.96 411.87 799.42 430.02 783.68 413.39 766.34 433.97 778.74 445.32 757.57"/><polygon class="cls-2" points="2050.06 181.75 2048.28 205.71 2072.3 206.29 2048.96 212 2055.83 235.02 2043.19 214.59 2023.42 228.24 2038.94 209.9 2019.85 195.32 2042.09 204.41 2050.06 181.75"/><polygon class="cls-2" points="2102.77 704.46 2100.99 728.42 2125.01 729 2101.67 734.71 2108.54 757.73 2095.9 737.3 2076.13 750.95 2091.65 732.61 2072.56 718.03 2094.8 727.12 2102.77 704.46"/><polygon class="cls-2" points="2533.77 954.46 2531.99 978.42 2556.01 979 2532.67 984.71 2539.54 1007.73 2526.9 987.3 2507.13 1000.95 2522.65 982.61 2503.56 968.03 2525.8 977.12 2533.77 954.46"/><polygon class="cls-2" points="185.77 1444.46 183.99 1468.42 208 1469 184.67 1474.71 191.54 1497.73 178.9 1477.3 159.13 1490.95 174.65 1472.61 155.56 1458.03 177.8 1467.12 185.77 1444.46"/><polygon class="cls-2" points="157.76 933.08 123.95 947.55 140.1 980.6 115.88 952.91 89.44 978.48 108.29 946.89 75.8 929.65 111.67 937.81 118.03 901.59 121.34 938.22 157.76 933.08"/><polygon class="cls-2" points="615.76 480.07 581.95 494.55 598.1 527.6 573.88 499.91 547.44 525.48 566.29 493.89 533.8 476.65 569.67 484.81 576.03 448.59 579.34 485.22 615.76 480.07"/><polygon class="cls-2" points="2798.17 271.66 2784.03 291.08 2804.14 304.23 2781.3 296.78 2775 319.97 2775.03 295.94 2751.03 297.12 2773.89 289.72 2765.36 267.27 2779.45 286.71 2798.17 271.66"/><polygon class="cls-2" points="2861.17 1225.66 2847.03 1245.08 2867.14 1258.23 2844.3 1250.78 2838 1273.97 2838.03 1249.94 2814.03 1251.12 2836.89 1243.72 2828.36 1221.27 2842.45 1240.71 2861.17 1225.66"/></g></svg>